<svg width="80" height="80" viewBox="0 0 80 80" fill="none" xmlns="http://www.w3.org/2000/svg">
<rect width="80" height="80" rx="8" fill="#7ED5DD"/>
<mask id="mask0_0_457" style="mask-type:alpha" maskUnits="userSpaceOnUse" x="0" y="0" width="80" height="80">
<rect width="80" height="80" rx="8" fill="white"/>
</mask>
<g mask="url(#mask0_0_457)">
<path fill-rule="evenodd" clip-rule="evenodd" d="M71.5509 31.0952C66.0268 35.7305 57.7292 34.9686 53.0538 29.3967L37.5946 10.9731C34.8431 7.69401 29.9598 7.24566 26.7088 9.97352C23.458 12.7013 23.0517 17.5882 25.8031 20.8673L27.8427 23.298C31.3991 27.5363 30.8739 33.8529 26.672 37.3787L21.6713 41.5747C19.9804 42.9936 19.769 45.5356 21.2003 47.2414C26.2487 53.2579 25.5032 62.2246 19.5384 67.2297L2.8639 81.2212L-0.9902 76.6281L15.6843 62.6366C19.1382 59.7384 19.5698 54.5462 16.6466 51.0624C13.0902 46.8241 13.6153 40.5074 17.8173 36.9816L22.8179 32.7856C24.5088 31.3667 24.7202 28.8246 23.289 27.119L21.2494 24.6883C16.3728 18.8765 17.093 10.215 22.8547 5.38039C28.6166 0.545577 37.2716 1.34029 42.1483 7.15207L57.6075 25.5757C60.1577 28.6148 64.6837 29.0304 67.6967 26.5022C70.7098 23.9739 71.0865 19.4445 68.5363 16.4053L61.5016 8.02166C57.9452 3.78324 58.4704 -2.53331 62.6725 -6.05925L77.2895 -18.3244L81.1436 -13.7313L66.5266 -1.46611C64.8355 -0.0471214 64.6241 2.49491 66.0554 4.20064L73.0901 12.5843C77.7654 18.1561 77.0749 26.4601 71.5509 31.0952" fill="white"/>
<path fill-rule="evenodd" clip-rule="evenodd" d="M71.2097 30.6883C65.9424 35.1081 58.0185 34.3673 53.5459 29.037L38.0358 10.5527C35.0572 7.00298 29.7802 6.50963 26.2725 9.45295C22.7648 12.3963 22.3343 17.6787 25.3129 21.2285L27.3592 23.6672C30.7092 27.6596 30.225 33.6008 26.2799 36.9111L21.2793 41.1071C19.3316 42.7415 19.0925 45.6749 20.7465 47.6461C25.5935 53.4224 24.893 62.0187 19.185 66.8082L2.51055 80.7998L-0.565303 77.1341L16.1092 63.1426C19.8198 60.029 20.2752 54.4407 17.1242 50.6855C13.7742 46.6931 14.2584 40.7518 18.2034 37.4415L23.204 33.2455C25.1519 31.611 25.3909 28.6778 23.7369 26.7066L21.6906 24.2679C17.016 18.697 17.6916 10.4066 23.1965 5.78737C28.7017 1.16801 36.9834 1.94228 41.658 7.51325L57.1682 25.9975C59.9448 29.3066 64.8639 29.7665 68.1338 27.0227C71.4038 24.2789 71.8051 19.3546 69.0284 16.0456L61.9706 7.63434C58.6205 3.64191 59.1046 -2.29931 63.0499 -5.6098L77.6669 -17.8749L80.7428 -14.2093L66.1257 -1.94413C64.1779 -0.309691 63.9388 2.62371 65.5929 4.59489L72.6507 13.0061C77.1234 18.3364 76.4769 26.2686 71.2097 30.6883" fill="#575757"/>
<path fill-rule="evenodd" clip-rule="evenodd" d="M23.6959 9.09965C23.6473 9.14048 23.5748 9.14238 23.5233 9.10068C23.465 9.05335 23.456 8.96775 23.503 8.90961C23.9376 8.37295 24.4284 7.87379 24.9618 7.42616C25.0203 7.37945 25.0813 7.327 25.1416 7.27853C25.1999 7.23153 25.2853 7.241 25.3325 7.29957C25.3795 7.35802 25.3686 7.4406 25.3122 7.49047C25.2536 7.53745 25.1953 7.58533 25.1374 7.63391C25.1372 7.63409 25.1369 7.63435 25.1367 7.63452C24.6164 8.0711 24.1378 8.55786 23.7142 9.08114C23.7086 9.08796 23.7025 9.09416 23.6959 9.09965ZM29.3786 5.4622C29.3636 5.47483 29.3454 5.48457 29.325 5.48959C28.5944 5.67377 27.8826 5.9374 27.2097 6.27321C27.1427 6.30652 27.0612 6.27919 27.0276 6.2121C26.9939 6.14501 27.0209 6.06359 27.0879 6.03008C27.7782 5.68561 28.5082 5.41514 29.2578 5.22629C29.3303 5.20802 29.4043 5.25212 29.4228 5.3248C29.4361 5.37706 29.4172 5.42981 29.3786 5.4622ZM21.6603 13.1605C21.6279 13.1876 21.5833 13.1991 21.5392 13.1877C21.4666 13.1689 21.4228 13.0949 21.4413 13.0221C21.6326 12.2726 21.9047 11.5433 22.25 10.8541C22.2835 10.7871 22.365 10.7602 22.432 10.7942C22.499 10.828 22.5261 10.9096 22.4927 10.9766C22.156 11.6484 21.8908 12.3595 21.7043 13.0904C21.697 13.1188 21.6812 13.1429 21.6603 13.1605ZM33.9247 5.31318C33.895 5.33817 33.8547 5.35009 33.8135 5.34264C33.0716 5.20744 32.3136 5.15145 31.5605 5.17578C31.4856 5.17832 31.4226 5.1195 31.4199 5.04449C31.4173 4.96967 31.4757 4.90696 31.5506 4.90451C32.3227 4.87938 33.1001 4.93691 33.8611 5.07545C33.9349 5.0888 33.984 5.15959 33.971 5.23339C33.9651 5.26582 33.9482 5.29351 33.9247 5.31318ZM21.492 17.7087C21.4744 17.7235 21.4528 17.734 21.4284 17.7382C21.3545 17.7511 21.2842 17.7016 21.271 17.6278C21.1358 16.8666 21.0817 16.0884 21.1104 15.3147C21.1133 15.2399 21.1762 15.1817 21.251 15.1847C21.3259 15.1877 21.3843 15.251 21.3816 15.3259C21.3535 16.0802 21.4063 16.839 21.5383 17.5813C21.5471 17.6307 21.5278 17.6786 21.492 17.7087ZM38.1309 7.06005C38.0851 7.09845 38.0177 7.10302 37.9662 7.06719C37.347 6.63626 36.6793 6.27104 35.9816 5.98157C35.9125 5.95274 35.8793 5.87336 35.9076 5.80411C35.9361 5.73477 36.0154 5.70197 36.0848 5.73073C36.8004 6.02769 37.4852 6.40243 38.1205 6.84453C38.1823 6.88735 38.1976 6.97208 38.155 7.03359C38.1479 7.04365 38.1398 7.05256 38.1309 7.06005ZM23.2267 21.9233C23.2233 21.9261 23.22 21.9287 23.2164 21.9313C23.1548 21.9737 23.0703 21.958 23.0276 21.8962C22.5863 21.2573 22.2134 20.5708 21.9192 19.856C21.8906 19.7866 21.9235 19.7073 21.9929 19.6789C22.0622 19.6507 22.1415 19.6841 22.17 19.7535C22.4568 20.4504 22.8204 21.1195 23.2506 21.7424C23.2908 21.8006 23.2796 21.8789 23.2267 21.9233ZM41.3494 10.3133C41.2921 10.3613 41.2065 10.3537 41.1582 10.2962L40.0438 8.96804C39.9248 8.82625 39.8008 8.68583 39.6752 8.55086C39.624 8.49598 39.6269 8.4101 39.6817 8.35901C39.7362 8.3081 39.8223 8.31128 39.8735 8.36616C40.0022 8.50459 40.1294 8.64856 40.2513 8.7939L41.3658 10.122C41.414 10.1795 41.4068 10.2651 41.3494 10.3133ZM26.1336 25.4798C26.1316 25.4814 26.1295 25.4831 26.1274 25.4846C26.0674 25.5293 25.9824 25.5168 25.9374 25.4567C25.8588 25.3514 25.7759 25.2468 25.6909 25.1455L24.4743 23.6956C24.4261 23.6381 24.4334 23.5524 24.4907 23.5043C24.5479 23.4563 24.6336 23.4639 24.6818 23.5214L25.8985 24.9713C25.9867 25.0765 26.0728 25.1853 26.1545 25.2946C26.1979 25.3527 26.1882 25.434 26.1336 25.4798ZM69.9789 -8.0645L68.2258 -6.5935C68.1685 -6.54544 68.0829 -6.5531 68.0346 -6.61061C67.9863 -6.66812 67.9937 -6.75381 68.051 -6.80187L69.804 -8.27286C69.8613 -8.32093 69.9469 -8.31326 69.9952 -8.25575C70.0435 -8.19824 70.0361 -8.11256 69.9789 -8.0645ZM73.4849 -11.0064L71.7318 -9.53541C71.6744 -9.48726 71.5889 -9.49501 71.5406 -9.55252C71.4924 -9.61003 71.4996 -9.69562 71.557 -9.74377L73.31 -11.2148C73.3672 -11.2627 73.453 -11.2552 73.5012 -11.1977C73.5495 -11.1401 73.5421 -11.0544 73.4849 -11.0064ZM76.9908 -13.9482L75.2378 -12.4773C75.1805 -12.4292 75.0949 -12.4369 75.0466 -12.4944C74.9984 -12.5519 75.0056 -12.6375 75.063 -12.6857L76.816 -14.1566C76.8733 -14.2047 76.9589 -14.197 77.0071 -14.1395C77.0554 -14.082 77.0482 -13.9964 76.9908 -13.9482ZM64.7264 -3.64388C64.6717 -3.59799 64.5898 -3.60253 64.5403 -3.65562C64.4889 -3.71052 64.4916 -3.79642 64.5462 -3.84752C64.6396 -3.93475 64.7368 -4.02096 64.8359 -4.10412L66.2979 -5.33088C66.3553 -5.37903 66.4408 -5.37127 66.4891 -5.31376C66.5373 -5.25625 66.5301 -5.17066 66.4727 -5.12251L65.0107 -3.89575C64.9155 -3.81582 64.8217 -3.73267 64.732 -3.64887C64.7301 -3.64711 64.7283 -3.64544 64.7264 -3.64388ZM44.303 13.8332C44.2457 13.8813 44.1602 13.8737 44.1118 13.8161L42.635 12.0561C42.5868 11.9986 42.5941 11.9129 42.6514 11.8649C42.7088 11.8167 42.7943 11.8245 42.8426 11.882L44.3194 13.642C44.3677 13.6996 44.3604 13.7851 44.303 13.8332ZM62.6108 0.322656C62.5816 0.347211 62.5421 0.359193 62.5016 0.352384C62.4275 0.339973 62.3773 0.270054 62.3893 0.196065C62.5158 -0.577267 62.7656 -1.31807 63.1322 -2.00575C63.1674 -2.07169 63.2497 -2.09651 63.3158 -2.0611C63.3819 -2.02551 63.4071 -1.94328 63.3718 -1.87715C63.0192 -1.21569 62.7788 -0.503045 62.6572 0.240951C62.6519 0.274199 62.6347 0.30263 62.6108 0.322656ZM27.5296 29.7668C27.5055 29.787 27.4744 29.7989 27.4405 29.7984C27.3657 29.7971 27.3056 29.7354 27.3066 29.6605C27.3155 28.9062 27.2023 28.1613 26.9697 27.4464C26.9464 27.3751 26.9853 27.2986 27.0566 27.2757C27.1279 27.2527 27.2045 27.292 27.2277 27.3632C27.4694 28.1065 27.5872 28.8808 27.5778 29.6647C27.5773 29.7058 27.5588 29.7423 27.5296 29.7668ZM26.0351 34.0109C25.987 34.0513 25.9154 34.0537 25.8639 34.0129C25.8049 33.9663 25.7948 33.8809 25.8412 33.8221C26.306 33.2329 26.6682 32.5741 26.9178 31.864C26.9424 31.7933 27.02 31.7564 27.0907 31.7816C27.1614 31.8067 27.1985 31.8842 27.1737 31.9549C26.9144 32.6932 26.5377 33.3783 26.0544 33.9908C26.0485 33.9984 26.0421 34.0051 26.0351 34.0109ZM24.3838 35.5865L22.6307 37.0575C22.5734 37.1055 22.4879 37.098 22.4395 37.0404C22.3914 36.983 22.3986 36.8972 22.4559 36.8491L24.2089 35.3781C24.2662 35.3301 24.352 35.3378 24.4001 35.3952C24.4485 35.4528 24.4411 35.5384 24.3838 35.5865ZM19.1918 40.0705C19.142 40.1123 19.0679 40.1131 19.0167 40.0694C18.9595 40.0206 18.9526 39.935 19.0011 39.878C19.258 39.5761 19.5434 39.293 19.8493 39.0363L20.7029 38.32C20.7602 38.272 20.8459 38.2797 20.8941 38.3371C20.9425 38.3947 20.935 38.4803 20.8778 38.5284L20.0242 39.2446C19.7297 39.4917 19.4552 39.7644 19.2079 40.0545C19.2029 40.0603 19.1975 40.0657 19.1918 40.0705ZM47.2568 17.3534C47.1995 17.4014 47.1137 17.3937 47.0656 17.3363L45.5887 15.5762C45.5404 15.5187 45.5478 15.433 45.605 15.3849C45.6624 15.3368 45.748 15.3445 45.7962 15.402L47.2731 17.1621C47.3213 17.2195 47.3141 17.3052 47.2568 17.3534ZM63.3477 4.77006C63.3406 4.77598 63.3329 4.78136 63.3244 4.78589C63.2585 4.82114 63.1761 4.79595 63.1408 4.72976C62.771 4.0394 62.5188 3.29693 62.3911 2.5233C62.379 2.44936 62.4292 2.37956 62.503 2.36767C62.5769 2.35569 62.6466 2.40606 62.659 2.4802C62.7818 3.2242 63.0242 3.93824 63.3798 4.60218C63.4107 4.65987 63.3957 4.72974 63.3477 4.77006ZM17.5406 44.2543C17.5152 44.2755 17.4821 44.2875 17.4465 44.2857C17.3716 44.2816 17.3139 44.2177 17.3176 44.1428C17.356 43.3606 17.5204 42.5958 17.8063 41.8699C17.8338 41.8001 17.9126 41.7662 17.9823 41.794C18.0521 41.8217 18.0862 41.9007 18.0589 41.9704C17.7838 42.6688 17.6255 43.4045 17.5885 44.1572C17.5867 44.1964 17.5684 44.2309 17.5406 44.2543ZM50.2104 20.8734C50.1531 20.9215 50.0674 20.9137 50.0192 20.8563L48.5424 19.0962C48.494 19.0386 48.5014 18.953 48.5587 18.905C48.6161 18.8568 48.7016 18.8645 48.7499 18.9221L50.2268 20.6822C50.2749 20.7396 50.2678 20.8253 50.2104 20.8734ZM66.1794 8.37805C66.1221 8.42612 66.0366 8.41855 65.9882 8.36094L64.5114 6.60097C64.4632 6.54346 64.4705 6.45778 64.5278 6.40972C64.5852 6.36156 64.6707 6.36932 64.719 6.42683L66.1958 8.1868C66.2441 8.24441 66.2368 8.3299 66.1794 8.37805ZM18.777 48.5909C18.7738 48.5936 18.7704 48.5961 18.7668 48.5985C18.7052 48.6411 18.6207 48.6254 18.578 48.5638C18.1315 47.9179 17.7964 47.2088 17.5822 46.4562C17.5618 46.384 17.6036 46.3093 17.6755 46.2887C17.7476 46.2685 17.8227 46.3106 17.8432 46.3829C18.0492 47.1067 18.3715 47.7886 18.8009 48.4097C18.8412 48.4681 18.8299 48.5465 18.777 48.5909ZM53.164 24.3934C53.1067 24.4414 53.0212 24.4339 52.9728 24.3762L51.4959 22.6162C51.4478 22.5588 51.455 22.473 51.5123 22.4249C51.5697 22.3768 51.6553 22.3846 51.7035 22.442L53.1804 24.2021C53.2287 24.2597 53.2214 24.3452 53.164 24.3934ZM69.1332 11.8982C69.0759 11.9463 68.9901 11.9385 68.942 11.8811L67.4651 10.121C67.4168 10.0635 67.4242 9.97782 67.4814 9.92976C67.5388 9.88161 67.6244 9.88936 67.6726 9.94687L69.1495 11.7069C69.1977 11.7643 69.1905 11.85 69.1332 11.8982ZM21.1375 52.5019C21.1256 52.5119 21.1119 52.5199 21.0965 52.5255C21.0262 52.551 20.9483 52.5144 20.9226 52.4438C20.6643 51.7351 20.3316 51.0499 19.9335 50.4071C19.8939 50.3432 19.9138 50.2599 19.977 50.2202C20.0408 50.1809 20.1244 50.2007 20.1639 50.2647C20.5718 50.9232 20.9129 51.6255 21.1776 52.3516C21.1976 52.4067 21.1798 52.4664 21.1375 52.5019ZM56.1354 27.8973C56.0813 27.9427 56.0005 27.9389 55.9505 27.887C55.7862 27.7163 55.6254 27.5375 55.4725 27.3553L54.4496 26.1362C54.4014 26.0788 54.4087 25.993 54.466 25.945C54.5233 25.8968 54.609 25.9047 54.6571 25.9621L55.68 27.1811C55.829 27.3586 55.9857 27.5327 56.1456 27.6991C56.1977 27.7532 56.1963 27.8391 56.1424 27.891C56.1402 27.8933 56.1377 27.8953 56.1354 27.8973ZM21.7945 57.0112C21.7687 57.0328 21.7351 57.0448 21.6989 57.0425C21.6242 57.0378 21.5671 56.9733 21.5715 56.8984C21.6162 56.1451 21.584 55.3847 21.4756 54.6386C21.4648 54.5644 21.5159 54.4956 21.5901 54.4852C21.6644 54.4747 21.7333 54.5264 21.744 54.6005C21.855 55.3648 21.8883 56.1437 21.8424 56.9156C21.8402 56.9542 21.822 56.9881 21.7945 57.0112ZM72.0115 15.4752C72.007 15.479 72.0019 15.4827 71.9966 15.486C71.9332 15.5258 71.8494 15.5067 71.8093 15.4432C71.5657 15.0566 71.2921 14.6817 70.9963 14.3293L70.4188 13.6411C70.3704 13.5834 70.3778 13.4979 70.4351 13.4498C70.4925 13.4017 70.578 13.4093 70.6263 13.4669L71.2038 14.1551C71.5076 14.517 71.7883 14.9019 72.0387 15.2989C72.0753 15.3571 72.0627 15.4323 72.0115 15.4752ZM20.6105 61.4047C20.5701 61.4386 20.5119 61.447 20.4618 61.4215C20.3948 61.3873 20.3681 61.3056 20.4018 61.2387C20.7413 60.5679 21.013 59.8582 21.2092 59.1296C21.2286 59.0572 21.3031 59.0146 21.3754 59.0343C21.4478 59.0542 21.4906 59.1289 21.4712 59.2011C21.2702 59.9476 20.992 60.6748 20.644 61.3621C20.6356 61.379 20.624 61.3933 20.6105 61.4047ZM5.50035 75.2497L3.74739 76.7206C3.69011 76.7686 3.60437 76.7609 3.55621 76.7035C3.50786 76.6458 3.51527 76.5603 3.57255 76.5122L5.32551 75.0413C5.3829 74.9931 5.46836 75.0008 5.5167 75.0584C5.56487 75.1158 5.55774 75.2015 5.50035 75.2497ZM9.00648 72.3077L7.25342 73.7787C7.19614 73.8267 7.1104 73.819 7.06223 73.7616C7.01388 73.7039 7.02129 73.6184 7.07858 73.5703L8.83164 72.0993C8.88892 72.0512 8.97448 72.0588 9.02283 72.1164C9.07099 72.1738 9.06376 72.2596 9.00648 72.3077ZM12.5124 69.3659L10.7594 70.8368C10.7021 70.8849 10.6164 70.8771 10.5682 70.8197C10.5199 70.762 10.5272 70.6766 10.5846 70.6284L12.3376 69.1575C12.3948 69.1094 12.4804 69.117 12.5287 69.1746C12.5769 69.232 12.5697 69.3178 12.5124 69.3659ZM16.0184 66.424L14.2655 67.8949C14.2082 67.9429 14.1224 67.9352 14.0743 67.8778C14.0259 67.8201 14.0333 67.7346 14.0906 67.6865L15.8436 66.2156C15.901 66.1674 15.9864 66.1751 16.0348 66.2327C16.0829 66.2901 16.0758 66.3758 16.0184 66.424ZM17.8311 64.9029L17.7714 64.9531C17.7141 65.0011 17.6284 64.9933 17.5802 64.9359C17.5318 64.8783 17.5393 64.7928 17.5965 64.7447L17.6563 64.6945C18.2154 64.2254 18.7281 63.7011 19.1803 63.1365C19.2276 63.0785 19.3125 63.0689 19.3711 63.116C19.4296 63.1629 19.4392 63.2486 19.3923 63.3069C18.9291 63.8854 18.4037 64.4224 17.8311 64.9029ZM59.9471 30.3883C59.9112 30.4184 59.8605 30.429 59.8132 30.4117C59.0849 30.1436 58.3868 29.7928 57.7385 29.3689C57.6757 29.3279 57.6578 29.2437 57.6986 29.181C57.7395 29.1185 57.8234 29.1008 57.8863 29.1418C58.5175 29.5545 59.197 29.896 59.906 30.1568C59.9763 30.1827 60.0127 30.2608 59.987 30.3311C59.9786 30.3542 59.9646 30.3736 59.9471 30.3883ZM73.513 19.7715C73.4932 19.7882 73.4683 19.7994 73.4405 19.8023C73.3661 19.8103 73.299 19.7563 73.2908 19.6818C73.2078 18.9313 73.0398 18.1903 72.7914 17.4791C72.7666 17.4083 72.8038 17.3311 72.8746 17.3065C72.9453 17.282 73.0227 17.3196 73.0475 17.3905C73.3026 18.1209 73.4753 18.8821 73.5604 19.6529C73.5657 19.6996 73.5464 19.7435 73.513 19.7715ZM64.4569 30.9679C64.4368 30.9848 64.4115 30.996 64.3832 30.9987C63.6141 31.0737 62.8345 31.0617 62.0664 30.9632C61.992 30.9535 61.9394 30.8855 61.9485 30.8111C61.9578 30.7368 62.0255 30.6841 62.0999 30.6938C62.8479 30.7898 63.6069 30.8015 64.3559 30.7285C64.4304 30.7212 64.4969 30.7758 64.5045 30.8506C64.5093 30.897 64.4901 30.9401 64.4569 30.9679ZM72.9943 24.2875C72.9587 24.3174 72.9086 24.3281 72.8615 24.3114C72.7909 24.286 72.7539 24.2084 72.7787 24.1377C73.0292 23.4287 73.2 22.6891 73.2861 21.9393C73.2946 21.8649 73.3618 21.8117 73.4363 21.8206C73.5107 21.8294 73.5641 21.897 73.5557 21.9715C73.4671 22.7414 73.2919 23.5009 73.0347 24.2291C73.0263 24.2528 73.0121 24.2725 72.9943 24.2875ZM68.7587 29.5227C68.7537 29.5269 68.7484 29.5309 68.7425 29.5345C68.084 29.9399 67.3789 30.27 66.6469 30.5158C66.576 30.5397 66.4989 30.5013 66.4748 30.4302C66.4506 30.359 66.4885 30.282 66.5597 30.2583C67.2722 30.019 67.9586 29.6977 68.5997 29.303C68.6634 29.2637 68.747 29.2838 68.7865 29.3477C68.8225 29.4058 68.8093 29.4802 68.7587 29.5227ZM70.5559 28.1155C70.5022 28.1605 70.4219 28.1571 70.3718 28.1061C70.3193 28.0525 70.32 27.9665 70.3733 27.9142C70.9113 27.3859 71.3885 26.7973 71.7916 26.1643C71.8318 26.1011 71.9157 26.0827 71.979 26.1234C72.0423 26.1638 72.061 26.2479 72.0206 26.311C71.6066 26.961 71.1164 27.5658 70.5638 28.1083C70.5612 28.1109 70.5586 28.1132 70.5559 28.1155V28.1155Z" fill="white"/>
</g>
</svg>
