<svg width="357" height="854" viewBox="0 0 357 854" fill="none" xmlns="http://www.w3.org/2000/svg">
<path fill-rule="evenodd" clip-rule="evenodd" d="M357 254.929C357 305.765 315.579 347.122 264.664 347.122H96.3119C66.3482 347.122 41.9714 371.462 41.9714 401.379C41.9714 431.295 66.3482 455.634 96.3119 455.634H118.523C157.252 455.634 188.761 487.093 188.761 525.762V571.78C188.761 587.342 201.441 600.002 217.027 600.002C272.005 600.002 316.733 644.66 316.733 699.552V853H274.762V699.552C274.762 667.767 248.862 641.908 217.027 641.908C178.298 641.908 146.789 610.449 146.789 571.78V525.762C146.789 510.201 134.109 497.54 118.523 497.54H96.3119C43.2048 497.54 0 454.402 0 401.379C0 348.355 43.2048 305.216 96.3119 305.216H264.664C292.436 305.216 315.029 282.658 315.029 254.93C315.029 227.202 292.436 204.643 264.664 204.643H188.056C149.326 204.643 117.817 173.184 117.817 134.514L117.817 0H159.789V134.514C159.789 150.077 172.469 162.737 188.056 162.737H264.664C315.579 162.737 357 204.095 357 254.929" fill="white"/>
<path fill-rule="evenodd" clip-rule="evenodd" d="M352.5 255.429C352.5 303.902 313.051 343.337 264.561 343.337H96.4098C64.1179 343.337 37.8466 369.598 37.8466 401.878C37.8466 434.158 64.1179 460.42 96.4098 460.42H118.595C154.914 460.42 184.461 489.957 184.461 526.262V572.28C184.461 590.205 199.05 604.788 216.981 604.788C269.529 604.788 312.281 647.524 312.281 700.052V853.5H278.935V700.052C278.935 665.904 251.143 638.122 216.981 638.122C180.662 638.122 151.114 608.585 151.114 572.28V526.262C151.114 508.337 136.527 493.754 118.595 493.754H96.4098C45.7306 493.754 4.5 452.539 4.5 401.879C4.5 351.218 45.7306 310.002 96.4098 310.002H264.561C294.664 310.002 319.153 285.522 319.153 255.43C319.153 225.338 294.664 200.857 264.561 200.857H188.044C151.725 200.857 122.177 171.321 122.177 135.014L122.177 0.5H155.524V135.014C155.524 152.94 170.112 167.523 188.044 167.523H264.561C313.051 167.523 352.5 206.957 352.5 255.429" fill="#575757"/>
<path fill-rule="evenodd" clip-rule="evenodd" d="M22.7872 415.582C22.7872 416.029 22.4702 416.428 22.0138 416.516C21.4964 416.616 20.9951 416.278 20.8949 415.762C19.9697 410.997 19.5 406.099 19.5 401.204C19.5124 400.678 19.5057 400.113 19.5172 399.569C19.5277 399.042 19.964 398.625 20.492 398.636C21.018 398.647 21.4133 399.079 21.4267 399.608C21.4152 400.135 21.4095 400.666 21.4095 401.197C21.4095 401.199 21.4095 401.202 21.4095 401.204C21.4095 405.978 21.8678 410.755 22.77 415.4C22.7814 415.461 22.7872 415.522 22.7872 415.582ZM28.8689 368.546C28.8689 368.684 28.8393 368.826 28.7744 368.958C26.4677 373.725 24.6737 378.749 23.4431 383.89C23.3199 384.401 22.8053 384.716 22.2926 384.594C21.7799 384.472 21.4639 383.959 21.5861 383.447C22.8483 378.174 24.6881 373.02 27.0549 368.13C27.284 367.657 27.8549 367.458 28.3295 367.687C28.6703 367.851 28.8689 368.191 28.8689 368.546ZM35.4394 444.893C35.4394 445.19 35.3 445.482 35.0394 445.668C34.6107 445.974 34.0149 445.875 33.7075 445.447C30.5397 441.03 27.8454 436.269 25.6972 431.296C25.4881 430.813 25.7115 430.252 26.1966 430.046C26.6806 429.837 27.242 430.06 27.4511 430.543C29.5448 435.391 32.1723 440.032 35.2609 444.339C35.3812 444.507 35.4394 444.701 35.4394 444.893ZM48.5814 343.392C48.5814 343.665 48.464 343.936 48.2377 344.124C44.1629 347.508 40.4413 351.337 37.1742 355.502C36.8496 355.917 36.249 355.991 35.8337 355.666C35.4194 355.342 35.3458 354.744 35.6705 354.33C39.0197 350.058 42.8368 346.132 47.0157 342.661C47.4205 342.323 48.0229 342.379 48.3609 342.782C48.5089 342.96 48.5814 343.177 48.5814 343.392ZM59.139 466.35C59.139 466.512 59.0979 466.675 59.011 466.826C58.7466 467.282 58.1632 467.437 57.7069 467.174C53.0028 464.463 48.5738 461.238 44.5429 457.588C44.1533 457.234 44.1247 456.632 44.478 456.243C44.8322 455.854 45.4365 455.825 45.827 456.178C49.7567 459.738 54.075 462.882 58.6625 465.525C58.9681 465.701 59.139 466.021 59.139 466.35ZM76.9554 328.635C76.9554 329.055 76.6757 329.439 76.2508 329.554C71.1391 330.942 66.162 332.887 61.4571 335.336C60.9902 335.578 60.4135 335.398 60.1691 334.932C59.9247 334.466 60.1061 333.891 60.5739 333.647C65.4002 331.135 70.5052 329.141 75.7496 327.717C76.2584 327.578 76.7835 327.878 76.922 328.386C76.9439 328.47 76.9554 328.553 76.9554 328.635ZM89.6315 476.053C89.6315 476.083 89.6305 476.113 89.6277 476.144C89.578 476.667 89.1121 477.052 88.587 477.002C83.1603 476.492 77.786 475.398 72.6142 473.752C72.112 473.592 71.8342 473.057 71.9946 472.555C72.155 472.055 72.6925 471.778 73.1947 471.938C78.2367 473.543 83.4753 474.608 88.7665 475.106C89.2611 475.153 89.6315 475.567 89.6315 476.053ZM108.974 326.003C108.974 326.529 108.546 326.956 108.019 326.956H95.8478C94.5484 326.956 93.2337 326.989 91.941 327.056C91.415 327.083 90.9662 326.679 90.9385 326.154C90.9109 325.63 91.3166 325.181 91.8427 325.153C93.1679 325.085 94.516 325.051 95.8478 325.051H108.019C108.546 325.051 108.974 325.477 108.974 326.003ZM121.874 476.469C121.874 476.487 121.873 476.506 121.872 476.524C121.842 477.049 121.391 477.451 120.865 477.421C119.944 477.369 119.007 477.342 118.079 477.342L104.792 477.342C104.265 477.342 103.837 476.916 103.837 476.39C103.837 475.864 104.265 475.438 104.792 475.438L118.079 475.438C119.042 475.438 120.016 475.465 120.973 475.52C121.481 475.548 121.874 475.968 121.874 476.469ZM139.332 88.7964V104.883C139.332 105.409 138.904 105.835 138.377 105.835C137.85 105.835 137.422 105.409 137.422 104.883V88.7964C137.422 88.2708 137.85 87.8442 138.377 87.8442C138.904 87.8442 139.332 88.2708 139.332 88.7964ZM139.332 56.6239V72.7106C139.332 73.2372 138.904 73.6628 138.377 73.6628C137.85 73.6628 137.422 73.2372 137.422 72.7106V56.6239C137.422 56.0992 137.85 55.6716 138.377 55.6716C138.904 55.6716 139.332 56.0992 139.332 56.6239ZM139.332 24.4522V40.538C139.332 41.0646 138.904 41.4902 138.377 41.4902C137.85 41.4902 137.422 41.0646 137.422 40.538V24.4522C137.422 23.9256 137.85 23.5 138.377 23.5C138.904 23.5 139.332 23.9256 139.332 24.4522ZM139.403 137.055C139.403 137.557 139.009 137.978 138.5 138.004C137.973 138.033 137.523 137.63 137.495 137.105C137.447 136.208 137.422 135.295 137.422 134.386V120.97C137.422 120.443 137.85 120.018 138.377 120.018C138.904 120.018 139.332 120.443 139.332 120.97V134.386C139.332 135.26 139.355 136.141 139.401 137.002C139.402 137.021 139.403 137.038 139.403 137.055ZM141.231 326.003C141.231 326.529 140.804 326.956 140.276 326.956H124.147C123.62 326.956 123.193 326.529 123.193 326.003C123.193 325.477 123.62 325.051 124.147 325.051H140.276C140.804 325.051 141.231 325.477 141.231 326.003ZM151.188 166.37C151.188 166.638 151.074 166.905 150.854 167.093C150.453 167.435 149.851 167.39 149.507 166.991C145.919 162.815 143.063 158.123 141.019 153.042C140.823 152.554 141.061 151.999 141.549 151.803C142.039 151.608 142.595 151.844 142.792 152.332C144.757 157.22 147.505 161.734 150.957 165.751C151.112 165.93 151.188 166.151 151.188 166.37ZM151.228 488.322C151.228 488.543 151.151 488.765 150.996 488.945C150.651 489.342 150.049 489.387 149.649 489.043C145.634 485.587 141.117 482.831 136.223 480.853C135.734 480.656 135.498 480.101 135.697 479.613C135.895 479.126 136.452 478.891 136.94 479.088C142.028 481.144 146.723 484.009 150.896 487.601C151.115 487.79 151.228 488.055 151.228 488.322ZM167.307 515.547C167.307 515.989 166.997 516.385 166.545 516.478C166.029 516.585 165.524 516.254 165.417 515.739C164.346 510.573 162.437 505.646 159.745 501.093C159.476 500.641 159.627 500.056 160.082 499.79C160.536 499.522 161.121 499.673 161.389 500.126C164.189 504.858 166.173 509.982 167.286 515.353C167.301 515.419 167.307 515.483 167.307 515.547ZM168.329 531.559V547.645C168.329 548.171 167.902 548.598 167.374 548.598C166.848 548.598 166.419 548.171 166.419 547.645V531.559C166.419 531.033 166.848 530.606 167.374 530.606C167.902 530.606 168.329 531.033 168.329 531.559ZM169.014 579.778C169.014 580.235 168.684 580.638 168.218 580.716C167.698 580.804 167.206 580.454 167.118 579.935C166.654 577.188 166.419 574.371 166.419 571.564V563.731C166.419 563.206 166.848 562.779 167.374 562.779C167.902 562.779 168.329 563.206 168.329 563.731V571.564C168.329 574.267 168.556 576.977 169.001 579.619C169.01 579.672 169.014 579.726 169.014 579.778ZM173.489 326.003C173.489 326.529 173.061 326.956 172.535 326.956H156.405C155.878 326.956 155.45 326.529 155.45 326.003C155.45 325.477 155.878 325.051 156.405 325.051H172.535C173.061 325.051 173.489 325.477 173.489 326.003ZM178.429 182.498C178.429 182.562 178.423 182.628 178.409 182.695C178.301 183.209 177.794 183.538 177.279 183.43C171.898 182.301 166.767 180.305 162.031 177.496C161.578 177.228 161.429 176.642 161.698 176.191C161.968 175.739 162.553 175.591 163.007 175.86C167.562 178.56 172.496 180.481 177.671 181.566C178.121 181.661 178.429 182.057 178.429 182.498ZM184.062 607.574C184.062 607.807 183.977 608.039 183.806 608.223C183.446 608.607 182.843 608.629 182.456 608.271C178.423 604.53 175.052 600.189 172.439 595.37C172.188 594.906 172.361 594.329 172.825 594.078C173.289 593.828 173.867 594.001 174.119 594.463C176.633 599.1 179.876 603.277 183.757 606.877C183.959 607.064 184.062 607.319 184.062 607.574ZM205.747 326.003C205.747 326.529 205.319 326.956 204.792 326.956H188.663C188.135 326.956 187.708 326.529 187.708 326.003C187.708 325.477 188.135 325.051 188.663 325.051H204.792C205.319 325.051 205.747 325.477 205.747 326.003ZM210.61 183.552C210.61 184.077 210.183 184.504 209.655 184.504H193.526C192.999 184.504 192.572 184.077 192.572 183.552C192.572 183.025 192.999 182.599 193.526 182.599H209.655C210.183 182.599 210.61 183.025 210.61 183.552ZM212.962 620.511C212.962 620.541 212.96 620.57 212.957 620.601C212.909 621.124 212.443 621.509 211.919 621.46C206.431 620.946 201.105 619.546 196.091 617.299C195.611 617.083 195.398 616.52 195.612 616.04C195.828 615.56 196.394 615.346 196.875 615.562C201.697 617.724 206.818 619.069 212.096 619.564C212.592 619.61 212.962 620.025 212.962 620.511ZM238.004 326.003C238.004 326.529 237.577 326.956 237.049 326.956H220.92C220.394 326.956 219.965 326.529 219.965 326.003C219.965 325.477 220.394 325.051 220.92 325.051H237.049C237.577 325.051 238.004 325.477 238.004 326.003ZM242.868 183.552C242.868 184.077 242.44 184.504 241.914 184.504H225.784C225.257 184.504 224.83 184.077 224.83 183.552C224.83 183.025 225.257 182.599 225.784 182.599H241.914C242.44 182.599 242.868 183.025 242.868 183.552ZM244.646 625.472C244.646 625.581 244.627 625.691 244.588 625.799C244.408 626.293 243.86 626.547 243.364 626.366C238.387 624.555 233.201 623.251 227.948 622.49C227.426 622.415 227.068 621.931 227.139 621.411C227.215 620.89 227.7 620.529 228.222 620.605C233.604 621.384 238.92 622.721 244.019 624.577C244.406 624.718 244.646 625.084 244.646 625.472ZM270.255 325.835C270.255 326.332 269.87 326.75 269.365 326.784C267.706 326.898 266.019 326.956 264.349 326.956H253.178C252.652 326.956 252.223 326.529 252.223 326.003C252.223 325.477 252.652 325.051 253.178 325.051H264.349C265.976 325.051 267.619 324.994 269.236 324.885C269.762 324.848 270.217 325.244 270.253 325.769C270.255 325.791 270.255 325.814 270.255 325.835ZM271.86 642.309C271.86 642.545 271.773 642.781 271.598 642.965C271.235 643.346 270.63 643.362 270.248 643.001C266.398 639.355 262.164 636.093 257.662 633.306C257.214 633.029 257.075 632.442 257.354 631.996C257.633 631.548 258.222 631.411 258.669 631.688C263.28 634.544 267.618 637.884 271.562 641.619C271.76 641.805 271.86 642.057 271.86 642.309ZM275.093 184.214C275.093 184.256 275.09 184.3 275.083 184.344C275.012 184.865 274.531 185.229 274.008 185.159C270.83 184.724 267.579 184.503 264.349 184.504H258.042C257.514 184.504 257.087 184.077 257.087 183.552C257.087 183.025 257.514 182.599 258.042 182.599H264.349C267.666 182.598 271.003 182.826 274.267 183.272C274.745 183.337 275.093 183.745 275.093 184.214ZM290.144 668.537C290.144 668.908 289.927 669.259 289.564 669.413C289.078 669.62 288.518 669.394 288.31 668.91C286.235 664.051 283.645 659.382 280.611 655.033C280.31 654.601 280.417 654.007 280.849 653.707C281.283 653.407 281.877 653.514 282.178 653.945C285.286 658.401 287.941 663.185 290.067 668.164C290.12 668.286 290.144 668.412 290.144 668.537ZM296.415 812.462V828.548C296.415 829.073 295.986 829.5 295.46 829.5C294.932 829.5 294.506 829.073 294.506 828.548V812.462C294.506 811.935 294.932 811.51 295.46 811.51C295.986 811.51 296.415 811.935 296.415 812.462ZM296.415 780.288V796.375C296.415 796.901 295.986 797.327 295.46 797.327C294.932 797.327 294.506 796.901 294.506 796.375V780.288C294.506 779.763 294.932 779.336 295.46 779.336C295.986 779.336 296.415 779.763 296.415 780.288ZM296.415 748.117V764.203C296.415 764.729 295.986 765.155 295.46 765.155C294.932 765.155 294.506 764.729 294.506 764.203V748.117C294.506 747.591 294.932 747.165 295.46 747.165C295.986 747.165 296.415 747.591 296.415 748.117ZM296.415 715.944V732.03C296.415 732.556 295.986 732.982 295.46 732.982C294.932 732.982 294.506 732.556 294.506 732.03V715.944C294.506 715.418 294.932 714.992 295.46 714.992C295.986 714.992 296.415 715.418 296.415 715.944ZM296.415 699.31V699.858C296.415 700.384 295.986 700.811 295.46 700.811C294.932 700.811 294.506 700.384 294.506 699.858V699.31C294.506 694.179 294 689.05 293.004 684.063C292.906 683.547 293.237 683.046 293.754 682.943C294.271 682.84 294.775 683.176 294.877 683.692C295.898 688.8 296.415 694.056 296.415 699.31ZM300.851 316.565C300.851 316.894 300.679 317.215 300.373 317.392C295.645 320.103 290.608 322.276 285.403 323.852C284.899 324.005 284.365 323.721 284.213 323.218C284.061 322.715 284.344 322.183 284.848 322.03C289.916 320.496 294.819 318.38 299.421 315.74C299.877 315.479 300.461 315.636 300.724 316.092C300.81 316.241 300.851 316.404 300.851 316.565ZM304.973 195.542C304.973 195.724 304.921 195.909 304.811 196.071C304.518 196.508 303.925 196.626 303.487 196.333C299.077 193.389 294.334 190.946 289.388 189.07C288.896 188.883 288.648 188.334 288.835 187.841C289.023 187.35 289.574 187.103 290.067 187.29C295.146 189.216 300.019 191.726 304.549 194.751C304.824 194.933 304.973 195.235 304.973 195.542ZM324.318 294.899C324.318 295.084 324.264 295.271 324.151 295.435C321.084 299.915 317.502 304.06 313.506 307.75C313.118 308.107 312.515 308.084 312.156 307.698C311.798 307.312 311.821 306.71 312.209 306.352C316.1 302.759 319.588 298.724 322.575 294.361C322.872 293.927 323.466 293.816 323.902 294.113C324.173 294.296 324.318 294.595 324.318 294.899ZM326.917 218.741C326.917 219.067 326.749 219.385 326.447 219.564C325.991 219.829 325.407 219.678 325.139 219.225C322.457 214.672 319.25 210.411 315.606 206.559C315.245 206.177 315.262 205.575 315.646 205.214C316.028 204.853 316.633 204.871 316.996 205.253C320.736 209.208 324.03 213.584 326.785 218.259C326.875 218.411 326.917 218.577 326.917 218.741ZM335.958 265.204C335.958 265.25 335.956 265.297 335.948 265.344C335.157 270.722 333.75 276.011 331.769 281.063C331.577 281.553 331.024 281.795 330.532 281.603C330.04 281.412 329.797 280.86 329.991 280.369C331.919 275.451 333.288 270.303 334.059 265.067C334.135 264.547 334.62 264.187 335.142 264.263C335.617 264.332 335.958 264.74 335.958 265.204ZM336.5 249.168C336.5 249.66 336.119 250.077 335.619 250.116C335.094 250.157 334.634 249.765 334.593 249.241C334.18 243.957 333.168 238.728 331.583 233.697C331.425 233.195 331.704 232.66 332.208 232.503C332.712 232.345 333.248 232.624 333.406 233.127C335.033 238.294 336.073 243.666 336.497 249.093C336.499 249.118 336.5 249.143 336.5 249.168V249.168Z" fill="white"/>
</svg>
