<svg width="80" height="80" viewBox="0 0 80 80" fill="none" xmlns="http://www.w3.org/2000/svg">
<rect width="80" height="80" rx="8" fill="#E7B277"/>
<mask id="mask0_0_557" style="mask-type:alpha" maskUnits="userSpaceOnUse" x="0" y="0" width="80" height="80">
<rect width="80" height="80" rx="8" fill="white"/>
</mask>
<g mask="url(#mask0_0_557)">
<path fill-rule="evenodd" clip-rule="evenodd" d="M73.0514 54.8749C67.0252 60.9011 57.2001 60.8811 51.1493 54.8303L31.1421 34.8231C27.5811 31.2622 21.7989 31.2505 18.2524 34.7969C14.7061 38.3432 14.7179 44.1254 18.2789 47.6863L20.9185 50.3259C25.5211 54.9286 25.5364 62.4023 20.9525 66.9861L15.4974 72.4412C13.6527 74.2859 13.6589 77.2936 15.5112 79.146C22.0449 85.6796 22.0666 96.2889 15.5596 102.796L-2.63044 120.986L-7.61838 115.998L10.5717 97.808C14.3395 94.0402 14.3268 87.8968 10.5436 84.1136C5.94098 79.511 5.92561 72.0372 10.5095 67.4533L15.9646 61.9982C17.8093 60.1535 17.8031 57.1458 15.9509 55.2936L13.3113 52.6539C6.99993 46.3426 6.97912 36.0944 13.2645 29.809C19.5501 23.5234 29.7983 23.5442 36.1097 29.8555L56.1169 49.8627C59.4173 53.1631 64.7765 53.174 68.0633 49.8871C71.3503 46.6001 71.3395 41.241 68.039 37.9405L58.9348 28.8363C54.3321 24.2336 54.3168 16.7599 58.9008 12.1759L74.8464 -3.76969L79.8343 1.21825L63.8887 17.1638C62.0439 19.0086 62.0501 22.0163 63.9024 23.8687L73.0067 32.9729C79.0575 39.0238 79.0774 48.8489 73.0514 54.8749" fill="white"/>
<path fill-rule="evenodd" clip-rule="evenodd" d="M72.6099 54.4329C66.8638 60.179 57.48 60.1444 51.6915 54.3559L31.6184 34.2828C27.7635 30.428 21.5143 30.405 17.6878 34.2315C13.8612 38.058 13.8843 44.3073 17.7391 48.1621L20.3874 50.8105C24.723 55.1461 24.7488 62.1746 20.4452 66.4783L14.9901 71.9334C12.8653 74.0582 12.8781 77.5284 15.0187 79.6691C21.2915 85.9419 21.3291 96.1114 15.1024 102.338L-3.0877 120.528L-7.06845 116.548L11.1216 98.3575C15.1695 94.3095 15.1452 87.6986 11.0672 83.6206C6.73157 79.285 6.70566 72.2563 11.0093 67.9527L16.4644 62.4975C18.5893 60.3726 18.5765 56.9026 16.4359 54.762L13.7876 52.1137C7.73776 46.0638 7.70161 36.2562 13.7069 30.2509C19.7124 24.2454 29.5201 24.2815 35.5699 30.3313L55.643 50.4044C59.2365 53.9979 65.0619 54.0194 68.629 50.4523C72.1962 46.8851 72.1747 41.0596 68.5813 37.4662L59.447 28.3319C55.1114 23.9963 55.0854 16.9678 59.3893 12.6639L75.3349 -3.28168L79.3156 0.699066L63.37 16.6447C61.2451 18.7696 61.2579 22.2398 63.3986 24.3804L72.5328 33.5147C78.3212 39.3031 78.3558 48.687 72.6099 54.4329" fill="#575757"/>
<path fill-rule="evenodd" clip-rule="evenodd" d="M14.6255 34.0884C14.5724 34.1415 14.4874 34.1513 14.4228 34.1078C14.3496 34.0583 14.3304 33.9587 14.3799 33.8855C14.8367 33.2094 15.3633 32.5715 15.9453 31.9895C16.0093 31.9285 16.0757 31.8605 16.1417 31.7972C16.2056 31.7358 16.3068 31.7379 16.3682 31.8018C16.4291 31.8655 16.4247 31.9636 16.3633 32.0281C16.2993 32.0895 16.2355 32.1518 16.1724 32.215C16.1722 32.2152 16.1718 32.2156 16.1716 32.2158C15.604 32.7834 15.0905 33.4055 14.6451 34.0647C14.6392 34.0733 14.6327 34.0812 14.6255 34.0884ZM20.938 29.2173C20.9215 29.2337 20.9012 29.2471 20.8777 29.2551C20.0377 29.5485 19.2279 29.9331 18.4709 30.3984C18.3955 30.4446 18.2971 30.4211 18.2508 30.3459C18.2045 30.2706 18.2281 30.1722 18.3035 30.1258C19.0799 29.6484 19.9106 29.2538 20.7724 28.953C20.8558 28.9239 20.9471 28.9679 20.9761 29.0513C20.997 29.1113 20.9801 29.1752 20.938 29.2173ZM12.6404 39.0721C12.6051 39.1074 12.5538 39.1256 12.5009 39.1168C12.4136 39.1025 12.3548 39.0201 12.3693 38.9327C12.5189 38.0323 12.7657 37.147 13.1023 36.3012C13.135 36.2191 13.2281 36.1789 13.3101 36.2118C13.3923 36.2443 13.4323 36.3374 13.3997 36.4195C13.0714 37.2441 12.831 38.1071 12.685 38.9852C12.6794 39.0193 12.6632 39.0493 12.6404 39.0721ZM26.2642 28.563C26.2317 28.5955 26.1857 28.6137 26.1364 28.6093C25.2513 28.5287 24.3551 28.5429 23.4728 28.6509C23.3849 28.6618 23.3051 28.5993 23.2944 28.5115C23.2838 28.4239 23.3462 28.3441 23.4339 28.3333C24.3386 28.2224 25.2577 28.208 26.1656 28.2905C26.2537 28.2984 26.3185 28.3764 26.3105 28.4644C26.3069 28.5031 26.2898 28.5374 26.2642 28.563ZM12.898 44.4314C12.8788 44.4506 12.8544 44.4652 12.8263 44.4728C12.7407 44.4957 12.6531 44.445 12.6303 44.3597C12.3951 43.48 12.2537 42.5717 12.21 41.66C12.2059 41.5719 12.274 41.4969 12.3622 41.4925C12.4504 41.4882 12.5255 41.5564 12.5297 41.6447C12.5723 42.5335 12.7102 43.419 12.9396 44.2769C12.9549 44.334 12.9371 44.3923 12.898 44.4314ZM31.3808 30.1711C31.3309 30.221 31.2522 30.2335 31.1881 30.1968C30.4174 29.756 29.5964 29.3975 28.7477 29.1311C28.6636 29.1045 28.6167 29.0148 28.6431 28.9305C28.6696 28.8461 28.7594 28.7992 28.8438 28.8256C29.7144 29.0989 30.5564 29.4668 31.3471 29.9191C31.4239 29.9629 31.4505 30.0607 31.4065 30.1375C31.3992 30.15 31.3906 30.1614 31.3808 30.1711ZM15.3579 49.1983C15.3543 49.2019 15.3507 49.2053 15.3466 49.2087C15.2786 49.265 15.1776 49.2555 15.1213 49.1874C14.5389 48.4836 14.0321 47.7167 13.6148 46.9082C13.5743 46.8297 13.605 46.7332 13.6837 46.6925C13.7623 46.652 13.8588 46.6828 13.8993 46.7614C14.306 47.5496 14.8001 48.2971 15.3679 48.9833C15.421 49.0474 15.4157 49.1406 15.3579 49.1983ZM35.488 33.6524C35.4255 33.7149 35.3241 33.7149 35.2616 33.6525L33.8193 32.2102C33.6653 32.0562 33.5056 31.9044 33.3445 31.7591C33.2789 31.7001 33.2737 31.5989 33.3329 31.5331C33.3919 31.4676 33.4934 31.4622 33.559 31.5213C33.7241 31.6703 33.8879 31.826 34.0457 31.9838L35.488 33.4261C35.5505 33.4885 35.5506 33.5898 35.488 33.6524ZM19.1293 53.0686C19.1271 53.0707 19.1247 53.0729 19.1225 53.0749C19.0565 53.1337 18.9553 53.128 18.8965 53.0622C18.7935 52.9468 18.6857 52.8326 18.5757 52.7226L17.0012 51.1481C16.9387 51.0856 16.9388 50.9842 17.0012 50.9218C17.0637 50.8593 17.1651 50.8592 17.2276 50.9217L18.8021 52.4962C18.9163 52.6104 19.0284 52.7291 19.1353 52.8489C19.1921 52.9125 19.1888 53.009 19.1293 53.0686ZM67.2847 9.05063L65.3723 10.963C65.3098 11.0255 65.2084 11.0255 65.1459 10.9631C65.0835 10.9006 65.0835 10.7992 65.146 10.7368L67.0584 8.82435C67.1209 8.76187 67.2223 8.76184 67.2847 8.82429C67.3472 8.88674 67.3472 8.98814 67.2847 9.05063ZM71.1094 5.22594L69.197 7.13834C69.1344 7.20094 69.0331 7.20085 68.9706 7.1384C68.9082 7.07595 68.9081 6.97466 68.9707 6.91206L70.8831 4.99966C70.9455 4.93729 71.047 4.93715 71.1094 4.9996C71.1719 5.06205 71.1717 5.16357 71.1094 5.22594ZM74.9339 1.40136L73.0217 3.31365C72.9591 3.37625 72.8578 3.37616 72.7953 3.31371C72.7329 3.25125 72.7328 3.14997 72.7954 3.08737L74.7077 1.17508C74.7703 1.11248 74.8716 1.11257 74.934 1.17502C74.9965 1.23747 74.9965 1.33876 74.9339 1.40136ZM61.5562 14.7961C61.4965 14.8557 61.3998 14.8591 61.3363 14.8019C61.2704 14.7429 61.265 14.6417 61.324 14.5759C61.425 14.4636 61.5306 14.3521 61.6387 14.244L63.2336 12.6492C63.2962 12.5866 63.3975 12.5866 63.4599 12.6491C63.5224 12.7115 63.5225 12.8128 63.4599 12.8754L61.865 14.4703C61.7611 14.5742 61.6592 14.6818 61.5622 14.7896C61.5601 14.7919 61.5582 14.7941 61.5562 14.7961ZM39.3104 37.4749C39.248 37.5374 39.1467 37.5375 39.0841 37.475L37.1729 35.5637C37.1104 35.5013 37.1104 35.3999 37.1729 35.3374C37.2355 35.2748 37.3368 35.2749 37.3993 35.3373L39.3105 37.2486C39.3731 37.3111 39.373 37.4123 39.3104 37.4749ZM59.4677 19.6775C59.4358 19.7095 59.3906 19.7277 59.3423 19.724C59.254 19.7172 59.188 19.6404 59.1947 19.5522C59.266 18.6307 59.4853 17.7343 59.8471 16.888C59.8819 16.8069 59.976 16.7691 60.0573 16.8037C60.1385 16.8385 60.1763 16.9324 60.1415 17.0138C59.7934 17.8278 59.5824 18.6901 59.514 19.5767C59.511 19.6163 59.4937 19.6515 59.4677 19.6775ZM21.1986 57.9561C21.1723 57.9824 21.1369 57.9997 21.0971 58.0027C21.009 58.009 20.9323 57.943 20.9259 57.8548C20.8609 56.968 20.6533 56.1052 20.3084 55.2901C20.274 55.2087 20.312 55.1148 20.3935 55.0804C20.475 55.0459 20.5689 55.0839 20.6033 55.1652C20.9617 56.0126 21.1776 56.9095 21.245 57.8312C21.2485 57.8795 21.2304 57.9243 21.1986 57.9561ZM19.8676 63.0981C19.815 63.1506 19.7312 63.161 19.6666 63.1185C19.5927 63.07 19.5722 62.9708 19.6208 62.8968C20.108 62.1558 20.4675 61.3439 20.6897 60.4837C20.7115 60.398 20.799 60.3465 20.8846 60.3686C20.9702 60.3907 21.0216 60.4778 20.9995 60.5635C20.7687 61.4579 20.3947 62.3022 19.8882 63.0725C19.8821 63.082 19.8752 63.0905 19.8676 63.0981ZM18.0852 65.1226L16.1728 67.035C16.1103 67.0975 16.009 67.0976 15.9464 67.0351C15.8841 66.9727 15.884 66.8712 15.9465 66.8087L17.8589 64.8963C17.9214 64.8339 18.0229 64.8339 18.0852 64.8963C18.1478 64.9588 18.1477 65.0601 18.0852 65.1226ZM12.4341 70.9362C12.3797 70.9905 12.2927 70.9993 12.2282 70.9533C12.1561 70.9021 12.1394 70.8023 12.1907 70.7302C12.4623 70.3486 12.7693 69.9859 13.103 69.6522L14.0342 68.721C14.0967 68.6585 14.1982 68.6586 14.2605 68.721C14.3231 68.7835 14.323 68.8848 14.2605 68.9473L13.3293 69.8785C13.008 70.1998 12.7128 70.5489 12.4514 70.9157C12.4461 70.9231 12.4403 70.93 12.4341 70.9362ZM43.1332 41.2976C43.0707 41.3601 42.9692 41.36 42.9068 41.2977L40.9955 39.3863C40.933 39.3239 40.933 39.2225 40.9955 39.16C41.0581 39.0974 41.1594 39.0975 41.2219 39.1599L43.1332 41.0713C43.1956 41.1336 43.1958 41.235 43.1332 41.2976ZM60.7786 24.823C60.7709 24.8307 60.7624 24.8378 60.7528 24.844C60.6789 24.8924 60.5796 24.8715 60.5314 24.7975C60.0279 24.0257 59.6573 23.1803 59.4298 22.2852C59.4081 22.1996 59.4601 22.1124 59.5457 22.0906C59.6313 22.0688 59.7182 22.1206 59.7402 22.2063C59.9589 23.0672 60.3153 23.8802 60.7995 24.6224C60.8415 24.6869 60.831 24.7706 60.7786 24.823ZM10.9128 76.0238C10.8852 76.0514 10.8475 76.069 10.8054 76.0706C10.717 76.0736 10.6429 76.0047 10.6397 75.9164C10.6065 74.9937 10.7231 74.0781 10.9864 73.1956C11.0117 73.1107 11.1008 73.0626 11.1856 73.0878C11.2703 73.113 11.3183 73.2021 11.2932 73.2869C11.0399 74.1361 10.9276 75.0168 10.9595 75.9047C10.9613 75.9509 10.9432 75.9935 10.9128 76.0238ZM46.9558 45.1203C46.8933 45.1827 46.7918 45.1827 46.7294 45.1203L44.8181 43.209C44.7555 43.1464 44.7557 43.0451 44.8181 42.9826C44.8807 42.92 44.9819 42.92 45.0445 42.9826L46.9558 44.8939C47.0182 44.9563 47.0184 45.0577 46.9558 45.1203ZM64.4667 28.7617C64.4042 28.8242 64.3029 28.8244 64.2404 28.7618L62.3291 26.8506C62.2667 26.7881 62.2667 26.6867 62.3292 26.6242C62.3918 26.5616 62.4931 26.5617 62.5555 26.6242L64.4668 28.5354C64.5293 28.598 64.5293 28.6991 64.4667 28.7617ZM12.7996 80.9864C12.7961 80.9899 12.7923 80.9932 12.7884 80.9965C12.7204 81.053 12.6194 81.0435 12.5631 80.9756C11.9739 80.2642 11.5092 79.4667 11.1821 78.6053C11.1509 78.5227 11.1926 78.4306 11.275 78.3989C11.3577 78.3675 11.4502 78.409 11.4815 78.4917C11.796 79.3202 12.2429 80.087 12.8096 80.7712C12.8628 80.8354 12.8573 80.9287 12.7996 80.9864ZM50.7783 48.9428C50.7158 49.0052 50.6145 49.0054 50.5519 48.9428L48.6406 47.0315C48.5782 46.9691 48.5782 46.8676 48.6406 46.8051C48.7032 46.7425 48.8046 46.7427 48.867 46.8051L50.7783 48.7164C50.8409 48.779 50.8409 48.8802 50.7783 48.9428ZM68.2894 32.5845C68.227 32.647 68.1254 32.6469 68.0631 32.5845L66.1517 30.6732C66.0893 30.6107 66.0893 30.5093 66.1518 30.4468C66.2144 30.3842 66.3157 30.3843 66.3781 30.4468L68.2895 32.3581C68.3518 32.4205 68.352 32.5219 68.2894 32.5845ZM15.9644 85.3308C15.9515 85.3437 15.9361 85.3546 15.9187 85.3627C15.8386 85.4001 15.7434 85.3654 15.7062 85.2852C15.3317 84.4801 14.8722 83.7104 14.3402 82.9975C14.2872 82.9266 14.3023 82.8267 14.3726 82.7734C14.4436 82.7205 14.5438 82.735 14.5967 82.8059C15.1418 83.5363 15.6129 84.3252 15.9965 85.1501C16.0256 85.2126 16.0106 85.2846 15.9644 85.3308ZM54.6201 52.7445C54.561 52.8036 54.4658 52.8077 54.4018 52.752C54.1917 52.5688 53.9849 52.3758 53.787 52.1779L52.4632 50.8541C52.4009 50.7917 52.4008 50.6902 52.4633 50.6277C52.5259 50.5651 52.6273 50.5653 52.6896 50.6277L54.0134 51.9515C54.2062 52.1443 54.4077 52.3322 54.6123 52.5107C54.6789 52.5688 54.6858 52.6698 54.6277 52.7365C54.6253 52.7393 54.6226 52.742 54.6201 52.7445ZM17.1877 90.5573C17.1597 90.5854 17.1214 90.6031 17.0786 90.6042C16.9903 90.6065 16.9168 90.5368 16.9145 90.4484C16.8916 89.5589 16.7777 88.6693 16.5756 87.8045C16.5554 87.7185 16.6086 87.6323 16.6948 87.6122C16.781 87.5921 16.8671 87.6456 16.8871 87.7315C17.0941 88.6174 17.2111 89.5286 17.2345 90.4399C17.2357 90.4856 17.2177 90.5273 17.1877 90.5573ZM72.0293 36.4819C72.0243 36.4869 72.0188 36.4918 72.0128 36.4962C71.9424 36.5496 71.842 36.5359 71.7885 36.4657C71.4636 36.0373 71.1046 35.6258 70.7218 35.2432L69.9744 34.4958C69.9118 34.4332 69.9119 34.3319 69.9744 34.2694C70.037 34.2068 70.1382 34.2068 70.2008 34.2694L70.9482 35.0168C71.3413 35.4097 71.7097 35.8322 72.0435 36.272C72.0924 36.3365 72.0851 36.4261 72.0293 36.4819ZM16.2365 95.842C16.1924 95.8861 16.1249 95.902 16.0635 95.8774C15.9814 95.8443 15.9418 95.7511 15.9747 95.6691C16.3064 94.8454 16.5546 93.9834 16.7122 93.1069C16.7277 93.0199 16.811 92.9619 16.8979 92.9775C16.9849 92.9932 17.0428 93.0764 17.0271 93.1633C16.8657 94.0612 16.6116 94.9446 16.2717 95.7885C16.2634 95.8092 16.2513 95.8272 16.2365 95.842ZM-0.130288 113.695L-2.04258 115.607C-2.10506 115.67 -2.20658 115.67 -2.26892 115.607C-2.33148 115.545 -2.33134 115.443 -2.26885 115.381L-0.356566 113.469C-0.293966 113.406 -0.192793 113.406 -0.130227 113.469C-0.0678877 113.531 -0.0676889 113.632 -0.130288 113.695ZM3.69451 109.87L1.78211 111.783C1.71963 111.845 1.61811 111.845 1.55577 111.783C1.49321 111.72 1.49335 111.619 1.55584 111.556L3.46824 109.644C3.53072 109.581 3.63201 109.581 3.69458 109.644C3.75692 109.706 3.757 109.808 3.69451 109.87ZM7.51909 106.046L5.6068 107.958C5.5442 108.02 5.4428 108.02 5.38046 107.958C5.3179 107.895 5.31793 107.794 5.38053 107.732L7.29281 105.819C7.3553 105.757 7.45659 105.757 7.51915 105.819C7.58149 105.882 7.58158 105.983 7.51909 106.046ZM11.3438 102.221L9.43149 104.133C9.36901 104.196 9.26749 104.196 9.20515 104.133C9.14259 104.071 9.14273 103.969 9.20521 103.907L11.1175 101.995C11.1801 101.932 11.2813 101.932 11.3438 101.995C11.4062 102.057 11.4064 102.158 11.3438 102.221ZM13.3213 100.243L13.2561 100.309C13.1936 100.371 13.0921 100.371 13.0297 100.309C12.9672 100.246 12.9673 100.145 13.0298 100.082L13.095 100.017C13.7049 99.4072 14.2548 98.7374 14.7296 98.0266C14.7793 97.9536 14.8781 97.9333 14.9516 97.9824C15.0251 98.0314 15.045 98.131 14.9957 98.2044C14.5093 98.9327 13.9459 99.6188 13.3213 100.243ZM59.3478 55.2682C59.3086 55.3073 59.2501 55.3251 59.1928 55.3097C58.3103 55.0718 57.455 54.7334 56.6509 54.3039C56.573 54.2623 56.5435 54.1653 56.5852 54.0874C56.627 54.0097 56.7238 53.98 56.8018 54.0215C57.5847 54.4397 58.4172 54.7691 59.2763 55.0007C59.3615 55.0236 59.4121 55.1115 59.389 55.1969C59.3814 55.2248 59.3669 55.249 59.3478 55.2682ZM74.2235 41.3693C74.2018 41.3909 74.1738 41.4068 74.1414 41.4131C74.0547 41.4304 73.9705 41.374 73.9534 41.2873C73.7808 40.4147 73.5092 39.5622 73.1461 38.7531C73.1099 38.6726 73.1459 38.578 73.2266 38.5416C73.3072 38.5054 73.4019 38.5414 73.4381 38.622C73.811 39.4529 74.0901 40.3288 74.2673 41.225C74.2781 41.2793 74.2599 41.3329 74.2235 41.3693ZM64.7044 55.4735C64.6824 55.4954 64.6538 55.5112 64.6208 55.5174C63.7247 55.6865 62.8076 55.7547 61.8953 55.7199C61.8069 55.7164 61.7383 55.6421 61.7416 55.5537C61.745 55.4655 61.8194 55.3965 61.9077 55.4C62.7961 55.4339 63.689 55.3676 64.5617 55.2029C64.6485 55.1865 64.7321 55.2436 64.7485 55.3306C64.7588 55.3846 64.7406 55.4373 64.7044 55.4735ZM74.0661 46.7277C74.0272 46.7665 73.9695 46.7844 73.9125 46.7697C73.8269 46.7473 73.7757 46.6601 73.7978 46.5744C74.0212 45.7154 74.1477 44.8288 74.1739 43.9392C74.1764 43.8509 74.2501 43.7813 74.3385 43.7839C74.4267 43.7863 74.4962 43.8601 74.4938 43.9485C74.4668 44.862 74.337 45.7725 74.1077 46.6548C74.1003 46.6836 74.0855 46.7082 74.0661 46.7277ZM69.6138 53.3226C69.6083 53.328 69.6026 53.3334 69.596 53.3381C68.8629 53.8837 68.0675 54.3457 67.2321 54.7116C67.1512 54.7471 67.0568 54.7102 67.0213 54.6292C66.9858 54.5481 67.0226 54.4536 67.1038 54.4183C67.9171 54.0622 68.6913 53.6125 69.405 53.0813C69.4759 53.0285 69.5762 53.0432 69.629 53.1141C69.6771 53.1785 69.669 53.2674 69.6138 53.3226ZM71.5844 51.4805C71.5259 51.539 71.4312 51.5434 71.3673 51.4888C71.3002 51.4314 71.2924 51.3304 71.3498 51.2632C71.9289 50.5861 72.4307 49.8445 72.8409 49.0586C72.8818 48.9802 72.9786 48.9497 73.057 48.9908C73.1354 49.0316 73.1658 49.1284 73.1247 49.2068C72.7033 50.0138 72.1879 50.7758 71.593 51.4712C71.5902 51.4745 71.5874 51.4775 71.5844 51.4805V51.4805Z" fill="white"/>
</g>
</svg>
