<svg width="357" height="953" viewBox="0 0 357 953" fill="none" xmlns="http://www.w3.org/2000/svg">
<g clip-path="url(#clip0_32_284)">
<path fill-rule="evenodd" clip-rule="evenodd" d="M92.3361 605.418H260.688C290.652 605.418 315.029 581.078 315.029 551.161C315.029 521.245 290.652 496.906 260.688 496.906H238.477C199.748 496.906 222.891 455 238.477 455H260.688C313.795 455 357 498.138 357 551.161C357 604.185 313.795 647.324 260.688 647.324H92.3361C64.5644 647.324 41.9714 669.882 41.9714 697.61C41.9714 725.338 64.5644 747.897 92.3361 747.897H168.944C207.674 747.897 239.183 779.356 239.183 818.026V952.54H197.211V818.026C197.211 802.463 184.531 789.803 168.944 789.803H92.3361C41.421 789.803 0 748.446 0 697.611C0 646.775 41.421 605.418 92.3361 605.418Z" fill="white"/>
<path fill-rule="evenodd" clip-rule="evenodd" d="M92.4387 609.204H260.59C292.882 609.204 319.153 582.942 319.153 550.662C319.153 518.382 292.882 492.12 260.59 492.12H238.405C202.086 492.12 220.473 458.786 238.405 458.786H260.59C311.269 458.786 352.5 500.001 352.5 550.661C352.5 601.322 311.269 642.538 260.59 642.538H92.4387C62.3363 642.538 37.8466 667.019 37.8466 697.11C37.8466 727.202 62.3363 751.683 92.4387 751.683H168.956C205.275 751.683 234.823 781.219 234.823 817.526V952.04H201.476V817.526C201.476 799.6 186.888 785.017 168.956 785.017H92.4387C43.949 785.017 4.5 745.583 4.5 697.111C4.5 648.638 43.949 609.204 92.4387 609.204Z" fill="#575757"/>
<path fill-rule="evenodd" clip-rule="evenodd" d="M334.213 536.958C334.213 536.511 334.53 536.112 334.986 536.024C335.504 535.924 336.005 536.262 336.105 536.778C337.03 541.543 337.5 546.441 337.5 551.336C337.488 551.862 337.494 552.428 337.483 552.971C337.472 553.498 337.036 553.915 336.508 553.904C335.982 553.893 335.587 553.462 335.573 552.932C335.585 552.405 335.591 551.874 335.591 551.343C335.591 551.341 335.591 551.338 335.591 551.336C335.591 546.562 335.132 541.786 334.23 537.14C334.219 537.079 334.213 537.018 334.213 536.958ZM328.131 583.995C328.131 583.856 328.161 583.715 328.226 583.582C330.532 578.815 332.326 573.792 333.557 568.65C333.68 568.139 334.195 567.824 334.707 567.946C335.22 568.068 335.536 568.581 335.414 569.093C334.152 574.367 332.312 579.52 329.945 584.41C329.716 584.883 329.145 585.082 328.671 584.853C328.33 584.689 328.131 584.349 328.131 583.995ZM321.561 507.648C321.561 507.351 321.7 507.058 321.961 506.873C322.389 506.566 322.985 506.665 323.292 507.093C326.46 511.51 329.155 516.271 331.303 521.244C331.512 521.727 331.288 522.288 330.803 522.495C330.319 522.703 329.758 522.48 329.549 521.998C327.455 517.149 324.828 512.508 321.739 508.201C321.619 508.033 321.561 507.839 321.561 507.648ZM308.419 609.148C308.419 608.875 308.536 608.605 308.762 608.416C312.837 605.032 316.559 601.203 319.826 597.038C320.15 596.623 320.751 596.55 321.166 596.874C321.581 597.198 321.654 597.796 321.33 598.21C317.98 602.482 314.163 606.408 309.984 609.88C309.58 610.217 308.977 610.161 308.639 609.758C308.491 609.58 308.419 609.364 308.419 609.148ZM297.861 486.19C297.861 486.028 297.902 485.865 297.989 485.714C298.253 485.258 298.837 485.103 299.293 485.366C303.997 488.077 308.426 491.302 312.457 494.953C312.847 495.306 312.875 495.908 312.522 496.297C312.168 496.687 311.563 496.715 311.173 496.362C307.243 492.803 302.925 489.658 298.337 487.015C298.032 486.839 297.861 486.519 297.861 486.19ZM280.045 623.905C280.045 623.485 280.324 623.101 280.749 622.986C285.861 621.599 290.838 619.653 295.543 617.204C296.01 616.962 296.586 617.142 296.831 617.608C297.075 618.074 296.894 618.65 296.426 618.893C291.6 621.405 286.495 623.399 281.25 624.823C280.742 624.962 280.216 624.662 280.078 624.154C280.056 624.071 280.045 623.987 280.045 623.905ZM267.368 476.487C267.368 476.457 267.369 476.427 267.372 476.396C267.422 475.873 267.888 475.488 268.413 475.538C273.84 476.048 279.214 477.142 284.386 478.788C284.888 478.948 285.166 479.483 285.005 479.985C284.845 480.486 284.308 480.762 283.805 480.602C278.763 478.997 273.525 477.932 268.233 477.434C267.739 477.387 267.368 476.973 267.368 476.487ZM248.026 626.537C248.026 626.011 248.454 625.585 248.981 625.585H261.152C262.452 625.585 263.766 625.551 265.059 625.485C265.585 625.457 266.034 625.861 266.061 626.386C266.089 626.91 265.683 627.359 265.157 627.387C263.832 627.455 262.484 627.489 261.152 627.489H248.981C248.454 627.489 248.026 627.063 248.026 626.537ZM252.208 475.198C252.735 475.198 253.163 475.625 253.163 476.15C253.163 476.676 252.735 477.102 252.208 477.102V475.198ZM217.668 863.744V847.657C217.668 847.131 218.096 846.705 218.623 846.705C219.15 846.705 219.578 847.131 219.578 847.657V863.744C219.578 864.269 219.15 864.696 218.623 864.696C218.096 864.696 217.668 864.269 217.668 863.744ZM217.668 895.916V879.83C217.668 879.303 218.096 878.877 218.623 878.877C219.15 878.877 219.578 879.303 219.578 879.83V895.916C219.578 896.441 219.15 896.869 218.623 896.869C218.096 896.869 217.668 896.441 217.668 895.916ZM217.668 928.088V912.002C217.668 911.476 218.096 911.05 218.623 911.05C219.15 911.05 219.578 911.476 219.578 912.002V928.088C219.578 928.615 219.15 929.04 218.623 929.04C218.096 929.04 217.668 928.615 217.668 928.088ZM217.597 815.485C217.597 814.984 217.991 814.563 218.5 814.536C219.027 814.507 219.477 814.91 219.505 815.435C219.553 816.332 219.578 817.245 219.578 818.154L219.578 831.57C219.578 832.097 219.15 832.522 218.623 832.522C218.096 832.522 217.668 832.097 217.668 831.57L217.668 818.154C217.668 817.28 217.645 816.399 217.599 815.538C217.598 815.52 217.597 815.502 217.597 815.485ZM215.769 626.537C215.769 626.011 216.196 625.585 216.724 625.585H232.853C233.38 625.585 233.807 626.011 233.807 626.537C233.807 627.063 233.38 627.489 232.853 627.489H216.724C216.196 627.489 215.769 627.063 215.769 626.537ZM205.812 786.17C205.812 785.902 205.926 785.635 206.146 785.448C206.547 785.105 207.149 785.151 207.493 785.55C211.081 789.725 213.937 794.418 215.981 799.499C216.177 799.986 215.939 800.541 215.451 800.737C214.961 800.933 214.405 800.696 214.208 800.208C212.243 795.32 209.495 790.806 206.043 786.789C205.888 786.61 205.812 786.389 205.812 786.17ZM183.511 626.537C183.511 626.011 183.939 625.585 184.465 625.585H200.595C201.122 625.585 201.55 626.011 201.55 626.537C201.55 627.063 201.122 627.489 200.595 627.489H184.465C183.939 627.489 183.511 627.063 183.511 626.537ZM178.571 770.043C178.571 769.978 178.577 769.912 178.591 769.846C178.699 769.331 179.206 769.002 179.721 769.11C185.102 770.239 190.233 772.236 194.969 775.044C195.422 775.312 195.571 775.898 195.302 776.349C195.032 776.802 194.447 776.949 193.993 776.681C189.438 773.98 184.504 772.059 179.329 770.974C178.879 770.88 178.571 770.484 178.571 770.043ZM151.253 626.537C151.253 626.011 151.681 625.585 152.208 625.585H168.337C168.865 625.585 169.292 626.011 169.292 626.537C169.292 627.063 168.865 627.489 168.337 627.489H152.208C151.681 627.489 151.253 627.063 151.253 626.537ZM146.39 768.989C146.39 768.463 146.817 768.036 147.345 768.036H163.474C164.001 768.036 164.428 768.463 164.428 768.989C164.428 769.515 164.001 769.941 163.474 769.941H147.345C146.817 769.941 146.39 769.515 146.39 768.989ZM118.996 626.537C118.996 626.011 119.423 625.585 119.951 625.585H136.08C136.606 625.585 137.035 626.011 137.035 626.537C137.035 627.063 136.606 627.489 136.08 627.489H119.951C119.423 627.489 118.996 627.063 118.996 626.537ZM114.132 768.989C114.132 768.463 114.56 768.036 115.086 768.036H131.216C131.743 768.036 132.17 768.463 132.17 768.989C132.17 769.515 131.743 769.941 131.216 769.941H115.086C114.56 769.941 114.132 769.515 114.132 768.989ZM86.7447 626.705C86.7447 626.208 87.1295 625.79 87.6346 625.756C89.2939 625.643 90.9809 625.585 92.6508 625.585H103.822C104.348 625.585 104.777 626.011 104.777 626.537C104.777 627.063 104.348 627.489 103.822 627.489H92.6508C91.0239 627.489 89.3808 627.546 87.7644 627.656C87.2383 627.692 86.7829 627.296 86.7467 626.771C86.7447 626.749 86.7447 626.726 86.7447 626.705ZM81.9071 768.326C81.9071 768.284 81.9099 768.24 81.9166 768.196C81.9882 767.675 82.4694 767.311 82.9917 767.381C86.17 767.816 89.4209 768.037 92.6508 768.036H98.9578C99.4858 768.036 99.9126 768.463 99.9126 768.989C99.9126 769.515 99.4858 769.941 98.9578 769.941H92.6508C89.334 769.942 85.9972 769.714 82.7329 769.269C82.2546 769.203 81.9071 768.795 81.9071 768.326ZM56.1491 635.975C56.1491 635.646 56.321 635.325 56.6274 635.149C61.3553 632.438 66.3916 630.264 71.5968 628.688C72.1009 628.535 72.6346 628.819 72.7874 629.322C72.9392 629.825 72.6556 630.357 72.1515 630.51C67.0838 632.044 62.1812 634.16 57.5793 636.8C57.1229 637.062 56.5386 636.905 56.2761 636.448C56.1902 636.299 56.1491 636.136 56.1491 635.975ZM52.0275 756.998C52.0275 756.816 52.079 756.632 52.1888 756.469C52.4819 756.032 53.0748 755.915 53.5131 756.207C57.923 759.151 62.6662 761.595 67.6117 763.47C68.1044 763.657 68.3517 764.207 68.1645 764.699C67.9774 765.19 67.4256 765.437 66.9329 765.25C61.8537 763.324 56.9807 760.814 52.4514 757.79C52.1764 757.607 52.0275 757.305 52.0275 756.998ZM32.6816 657.641C32.6816 657.456 32.736 657.27 32.8486 657.105C35.9162 652.625 39.4984 648.481 43.494 644.79C43.8816 644.433 44.485 644.457 44.844 644.842C45.202 645.228 45.1791 645.831 44.7915 646.188C40.9 649.781 37.4123 653.816 34.4249 658.179C34.128 658.613 33.5341 658.725 33.0978 658.427C32.8267 658.244 32.6816 657.946 32.6816 657.641ZM30.0828 733.799C30.0828 733.473 30.2508 733.155 30.5534 732.977C31.0089 732.711 31.5932 732.862 31.8614 733.316C34.5433 737.868 37.7503 742.129 41.3936 745.981C41.7554 746.363 41.7382 746.966 41.3544 747.327C40.9716 747.687 40.3672 747.669 40.0044 747.287C36.2637 743.332 32.9699 738.957 30.2145 734.281C30.1248 734.129 30.0828 733.963 30.0828 733.799ZM21.0423 687.336C21.0423 687.29 21.0442 687.244 21.0518 687.196C21.8433 681.818 23.2497 676.529 25.2307 671.477C25.4227 670.987 25.9764 670.745 26.4681 670.937C26.9598 671.128 27.2032 671.68 27.0094 672.171C25.0809 677.089 23.7118 682.237 22.9413 687.473C22.8649 687.993 22.3799 688.353 21.8576 688.277C21.3831 688.208 21.0423 687.801 21.0423 687.336ZM21.3812 702.424C21.9063 702.383 22.3656 702.775 22.4066 703.299C22.82 708.583 23.8321 713.812 25.4169 718.843C25.5754 719.345 25.2957 719.88 24.7916 720.037C24.2884 720.195 23.7519 719.916 23.5943 719.413C21.9674 714.247 20.9268 708.874 20.5029 703.447C20.501 703.422 20.5 703.397 20.5 703.372C20.5 702.88 20.881 702.463 21.3812 702.424Z" fill="white"/>
<path fill-rule="evenodd" clip-rule="evenodd" d="M264.664 347.122H96.3119C66.3482 347.122 41.9714 371.462 41.9714 401.379C41.9714 431.295 66.3482 455.634 96.3119 455.634H262.295C301.024 455.634 277.881 497.54 262.295 497.54L96.3119 497.54C43.2048 497.54 0 454.402 0 401.379C0 348.355 43.2048 305.216 96.3119 305.216H264.664C292.436 305.216 315.029 282.658 315.029 254.93C315.029 227.202 292.436 204.643 264.664 204.643H188.056C149.326 204.643 117.817 173.184 117.817 134.514V0H159.789V134.514C159.789 150.077 172.469 162.737 188.056 162.737H264.664C315.579 162.737 357 204.094 357 254.929C357 305.765 315.579 347.122 264.664 347.122Z" fill="white"/>
<path fill-rule="evenodd" clip-rule="evenodd" d="M264.561 343.337H96.4098C64.1179 343.337 37.8466 369.598 37.8466 401.878C37.8466 434.158 64.1179 460.42 96.4098 460.42L270.105 458.786C319.153 464.07 291.274 493.754 273.342 493.754L96.4098 493.754C45.7306 493.754 4.5 452.539 4.5 401.879C4.5 351.218 45.7306 310.002 96.4098 310.002H264.561C294.664 310.002 319.153 285.522 319.153 255.43C319.153 225.338 294.664 200.857 264.561 200.857H188.044C151.725 200.857 122.177 171.321 122.177 135.014V0.5H155.524V135.014C155.524 152.94 170.112 167.523 188.044 167.523H264.561C313.051 167.523 352.5 206.957 352.5 255.429C352.5 303.902 313.051 343.337 264.561 343.337Z" fill="#575757"/>
<path fill-rule="evenodd" clip-rule="evenodd" d="M213.609 477.25C213.609 477.775 213.182 478.202 212.654 478.202H196.526C195.999 478.202 195.571 477.775 195.571 477.25C195.571 476.723 195.999 476.297 196.526 476.297H212.654C213.182 476.297 213.609 476.723 213.609 477.25ZM245.868 477.25C245.868 477.775 245.439 478.202 244.913 478.202H228.784C228.257 478.202 227.829 477.775 227.829 477.25C227.829 476.723 228.257 476.297 228.784 476.297H244.913C245.439 476.297 245.868 476.723 245.868 477.25ZM278.092 477.912C278.092 477.954 278.09 477.998 278.083 478.042C278.011 478.563 277.53 478.927 277.008 478.857C273.83 478.422 270.579 478.201 267.349 478.202H261.042C260.514 478.202 260.087 477.775 260.087 477.25C260.087 476.723 260.514 476.297 261.042 476.297H267.349C270.666 476.296 274.002 476.524 277.267 476.97C277.745 477.035 278.092 477.443 278.092 477.912Z" fill="white"/>
<path fill-rule="evenodd" clip-rule="evenodd" d="M150.609 477.25C150.609 477.775 150.182 478.202 149.654 478.202H133.526C132.999 478.202 132.571 477.775 132.571 477.25C132.571 476.723 132.999 476.297 133.526 476.297H149.654C150.182 476.297 150.609 476.723 150.609 477.25ZM182.868 477.25C182.868 477.775 182.439 478.202 181.913 478.202H165.784C165.257 478.202 164.829 477.775 164.829 477.25C164.829 476.723 165.257 476.297 165.784 476.297H181.913C182.439 476.297 182.868 476.723 182.868 477.25Z" fill="white"/>
<path fill-rule="evenodd" clip-rule="evenodd" d="M118.609 477.25C118.609 477.775 118.182 478.202 117.654 478.202H101.526C100.999 478.202 100.571 477.775 100.571 477.25C100.571 476.723 100.999 476.297 101.526 476.297H117.654C118.182 476.297 118.609 476.723 118.609 477.25Z" fill="white"/>
<path fill-rule="evenodd" clip-rule="evenodd" d="M22.7872 415.582C22.7872 416.029 22.4702 416.428 22.0138 416.516C21.4964 416.616 20.9951 416.278 20.8949 415.762C19.9697 410.997 19.5 406.099 19.5 401.204C19.5124 400.678 19.5057 400.113 19.5172 399.569C19.5277 399.042 19.964 398.625 20.492 398.636C21.018 398.647 21.4133 399.079 21.4267 399.608C21.4152 400.135 21.4095 400.666 21.4095 401.197C21.4095 401.199 21.4095 401.202 21.4095 401.204C21.4095 405.978 21.8678 410.755 22.77 415.4C22.7814 415.461 22.7872 415.522 22.7872 415.582ZM28.8689 368.546C28.8689 368.684 28.8393 368.826 28.7744 368.958C26.4677 373.725 24.6737 378.749 23.4431 383.89C23.3199 384.401 22.8053 384.716 22.2926 384.594C21.7799 384.472 21.4639 383.959 21.5861 383.447C22.8483 378.174 24.6881 373.02 27.0549 368.13C27.284 367.657 27.8549 367.458 28.3295 367.687C28.6703 367.851 28.8689 368.191 28.8689 368.546ZM35.4394 444.893C35.4394 445.19 35.3 445.482 35.0394 445.668C34.6107 445.974 34.0149 445.875 33.7075 445.447C30.5397 441.03 27.8454 436.269 25.6972 431.296C25.4881 430.813 25.7115 430.252 26.1966 430.046C26.6806 429.837 27.242 430.06 27.4511 430.543C29.5448 435.391 32.1723 440.032 35.2609 444.339C35.3812 444.507 35.4394 444.701 35.4394 444.893ZM48.5814 343.392C48.5814 343.665 48.464 343.936 48.2377 344.124C44.1629 347.508 40.4413 351.337 37.1742 355.502C36.8496 355.917 36.249 355.991 35.8337 355.666C35.4194 355.342 35.3458 354.744 35.6705 354.33C39.0197 350.058 42.8368 346.132 47.0157 342.661C47.4205 342.323 48.0229 342.379 48.3609 342.782C48.5089 342.961 48.5814 343.177 48.5814 343.392ZM59.139 466.35C59.139 466.512 59.0979 466.675 59.011 466.826C58.7466 467.282 58.1632 467.437 57.7069 467.174C53.0028 464.463 48.5738 461.238 44.5429 457.588C44.1533 457.234 44.1247 456.632 44.478 456.243C44.8322 455.854 45.4365 455.825 45.827 456.178C49.7567 459.738 54.075 462.882 58.6625 465.525C58.9681 465.701 59.139 466.021 59.139 466.35ZM76.9554 328.635C76.9554 329.055 76.6757 329.439 76.2508 329.554C71.1391 330.942 66.162 332.887 61.4571 335.336C60.9902 335.578 60.4135 335.398 60.1691 334.932C59.9247 334.466 60.1061 333.891 60.5739 333.647C65.4002 331.135 70.5052 329.141 75.7496 327.717C76.2584 327.578 76.7835 327.878 76.922 328.386C76.9439 328.47 76.9554 328.553 76.9554 328.635ZM89.6315 476.053C89.6315 476.083 89.6305 476.113 89.6277 476.144C89.578 476.667 89.1121 477.052 88.587 477.002C83.1603 476.492 77.786 475.398 72.6142 473.752C72.112 473.592 71.8342 473.057 71.9946 472.555C72.155 472.055 72.6925 471.778 73.1947 471.938C78.2367 473.543 83.4753 474.608 88.7665 475.106C89.2611 475.153 89.6315 475.567 89.6315 476.053ZM108.974 326.003C108.974 326.529 108.546 326.956 108.019 326.956H95.8478C94.5484 326.956 93.2337 326.989 91.941 327.056C91.415 327.083 90.9662 326.679 90.9385 326.154C90.9109 325.63 91.3166 325.181 91.8427 325.153C93.1679 325.085 94.516 325.051 95.8478 325.051H108.019C108.546 325.051 108.974 325.477 108.974 326.003ZM139.332 88.7964V104.883C139.332 105.409 138.904 105.835 138.377 105.835C137.85 105.835 137.422 105.409 137.422 104.883V88.7964C137.422 88.2708 137.85 87.8442 138.377 87.8442C138.904 87.8442 139.332 88.2708 139.332 88.7964ZM139.332 56.6238V72.7106C139.332 73.2372 138.904 73.6628 138.377 73.6628C137.85 73.6628 137.422 73.2372 137.422 72.7106V56.6238C137.422 56.0992 137.85 55.6716 138.377 55.6716C138.904 55.6716 139.332 56.0992 139.332 56.6238ZM139.332 24.4522V40.538C139.332 41.0646 138.904 41.4903 138.377 41.4903C137.85 41.4903 137.422 41.0646 137.422 40.538V24.4522C137.422 23.9256 137.85 23.5 138.377 23.5C138.904 23.5 139.332 23.9256 139.332 24.4522ZM139.403 137.055C139.403 137.557 139.009 137.978 138.5 138.004C137.973 138.033 137.523 137.63 137.495 137.105C137.447 136.208 137.422 135.295 137.422 134.386L137.422 120.97C137.422 120.443 137.85 120.018 138.377 120.018C138.904 120.018 139.332 120.443 139.332 120.97L139.332 134.386C139.332 135.26 139.355 136.141 139.401 137.002C139.402 137.021 139.403 137.038 139.403 137.055ZM141.231 326.003C141.231 326.529 140.804 326.956 140.276 326.956H124.147C123.62 326.956 123.193 326.529 123.193 326.003C123.193 325.477 123.62 325.051 124.147 325.051H140.276C140.804 325.051 141.231 325.477 141.231 326.003ZM151.188 166.37C151.188 166.638 151.074 166.905 150.854 167.093C150.453 167.435 149.851 167.39 149.507 166.991C145.919 162.815 143.063 158.123 141.019 153.042C140.823 152.554 141.061 151.999 141.549 151.803C142.039 151.608 142.595 151.844 142.792 152.332C144.757 157.22 147.505 161.734 150.957 165.751C151.112 165.93 151.188 166.151 151.188 166.37ZM173.489 326.003C173.489 326.529 173.061 326.956 172.535 326.956H156.405C155.878 326.956 155.45 326.529 155.45 326.003C155.45 325.477 155.878 325.051 156.405 325.051H172.535C173.061 325.051 173.489 325.477 173.489 326.003ZM178.429 182.498C178.429 182.562 178.423 182.628 178.409 182.695C178.301 183.209 177.794 183.538 177.279 183.43C171.898 182.301 166.767 180.305 162.031 177.496C161.578 177.228 161.429 176.642 161.698 176.191C161.968 175.739 162.553 175.591 163.007 175.86C167.562 178.56 172.496 180.481 177.671 181.566C178.121 181.661 178.429 182.057 178.429 182.498ZM205.747 326.003C205.747 326.529 205.319 326.956 204.792 326.956H188.663C188.135 326.956 187.708 326.529 187.708 326.003C187.708 325.477 188.135 325.051 188.663 325.051H204.792C205.319 325.051 205.747 325.477 205.747 326.003ZM210.61 183.552C210.61 184.077 210.183 184.504 209.655 184.504H193.526C192.999 184.504 192.572 184.077 192.572 183.552C192.572 183.025 192.999 182.599 193.526 182.599H209.655C210.183 182.599 210.61 183.025 210.61 183.552ZM238.004 326.003C238.004 326.529 237.577 326.956 237.049 326.956H220.92C220.394 326.956 219.965 326.529 219.965 326.003C219.965 325.477 220.394 325.051 220.92 325.051H237.049C237.577 325.051 238.004 325.477 238.004 326.003ZM242.868 183.552C242.868 184.077 242.44 184.504 241.914 184.504H225.784C225.257 184.504 224.83 184.077 224.83 183.552C224.83 183.025 225.257 182.599 225.784 182.599H241.914C242.44 182.599 242.868 183.025 242.868 183.552ZM270.255 325.835C270.255 326.332 269.87 326.75 269.365 326.784C267.706 326.898 266.019 326.956 264.349 326.956H253.178C252.652 326.956 252.223 326.529 252.223 326.003C252.223 325.477 252.652 325.051 253.178 325.051H264.349C265.976 325.051 267.619 324.994 269.236 324.885C269.762 324.848 270.217 325.244 270.253 325.769C270.255 325.791 270.255 325.814 270.255 325.835ZM275.093 184.214C275.093 184.256 275.09 184.3 275.083 184.344C275.012 184.865 274.531 185.229 274.008 185.159C270.83 184.724 267.579 184.503 264.349 184.504H258.042C257.514 184.504 257.087 184.077 257.087 183.552C257.087 183.025 257.514 182.599 258.042 182.599H264.349C267.666 182.598 271.003 182.826 274.267 183.272C274.745 183.337 275.093 183.745 275.093 184.214ZM300.851 316.565C300.851 316.894 300.679 317.215 300.373 317.392C295.645 320.103 290.608 322.276 285.403 323.852C284.899 324.005 284.365 323.721 284.213 323.218C284.061 322.715 284.344 322.183 284.848 322.03C289.916 320.496 294.819 318.38 299.421 315.74C299.877 315.479 300.461 315.636 300.724 316.092C300.81 316.241 300.851 316.404 300.851 316.565ZM304.973 195.542C304.973 195.724 304.921 195.909 304.811 196.071C304.518 196.508 303.925 196.626 303.487 196.333C299.077 193.389 294.334 190.946 289.388 189.07C288.896 188.883 288.648 188.334 288.835 187.841C289.023 187.35 289.574 187.103 290.067 187.29C295.146 189.216 300.019 191.726 304.549 194.751C304.824 194.933 304.973 195.235 304.973 195.542ZM324.318 294.899C324.318 295.084 324.264 295.271 324.151 295.435C321.084 299.916 317.502 304.06 313.506 307.75C313.118 308.107 312.515 308.084 312.156 307.698C311.798 307.312 311.821 306.71 312.209 306.352C316.1 302.759 319.588 298.724 322.575 294.361C322.872 293.927 323.466 293.816 323.902 294.113C324.173 294.296 324.318 294.595 324.318 294.899ZM326.917 218.741C326.917 219.067 326.749 219.385 326.447 219.564C325.991 219.829 325.407 219.678 325.139 219.225C322.457 214.672 319.25 210.411 315.606 206.559C315.245 206.177 315.262 205.575 315.646 205.214C316.028 204.853 316.633 204.871 316.996 205.253C320.736 209.208 324.03 213.584 326.785 218.259C326.875 218.411 326.917 218.577 326.917 218.741ZM335.958 265.204C335.958 265.25 335.956 265.297 335.948 265.344C335.157 270.722 333.75 276.011 331.769 281.063C331.577 281.553 331.024 281.795 330.532 281.603C330.04 281.412 329.797 280.86 329.991 280.369C331.919 275.451 333.288 270.303 334.059 265.067C334.135 264.547 334.62 264.187 335.142 264.264C335.617 264.332 335.958 264.74 335.958 265.204ZM335.619 250.116C335.094 250.157 334.634 249.765 334.593 249.241C334.18 243.957 333.168 238.728 331.583 233.697C331.425 233.195 331.704 232.66 332.208 232.503C332.712 232.345 333.248 232.624 333.406 233.127C335.033 238.294 336.073 243.666 336.497 249.093C336.499 249.118 336.5 249.143 336.5 249.168C336.5 249.66 336.119 250.077 335.619 250.116Z" fill="white"/>
</g>
<defs>
<clipPath id="clip0_32_284">
<rect width="357" height="952.54" fill="white"/>
</clipPath>
</defs>
</svg>
