<svg width="80" height="80" viewBox="0 0 80 80" fill="none" xmlns="http://www.w3.org/2000/svg">
<rect width="80" height="80" rx="8" fill="#E7B277"/>
<mask id="mask0_0_579" style="mask-type:alpha" maskUnits="userSpaceOnUse" x="0" y="0" width="80" height="80">
<rect width="80" height="80" rx="8" fill="white"/>
</mask>
<g mask="url(#mask0_0_579)">
<path fill-rule="evenodd" clip-rule="evenodd" d="M27.2401 33.5877L47.3384 53.6861C50.9156 57.2632 56.7176 57.2815 60.2722 53.727C63.8266 50.1726 63.8082 44.3706 60.231 40.7935L57.5794 38.1418C52.9558 33.5182 60.6977 31.3022 62.5583 33.1628L65.21 35.8145C71.5501 42.1546 71.5826 52.4379 65.2828 58.7377C58.9829 65.0377 48.6995 65.0051 42.3595 58.6651L22.2611 38.5667C18.9456 35.2513 13.5682 35.2343 10.2738 38.5287C6.97927 41.8232 6.99622 47.2007 10.3117 50.5161L19.4574 59.6619C24.0811 64.2856 24.1049 71.7848 19.5104 76.3793L3.52837 92.3614L-1.4823 87.3507L14.4998 71.3686C16.3488 69.5196 16.3392 66.5016 14.4784 64.6408L5.33271 55.4951C-0.745686 49.4167 -0.776846 39.558 5.26299 33.5181C11.3029 27.4782 21.1617 27.5094 27.2401 33.5877Z" fill="white"/>
<path fill-rule="evenodd" clip-rule="evenodd" d="M26.8023 34.0498L46.8767 54.1242C50.7318 57.9793 56.9883 57.9954 60.8236 54.1602C64.6589 50.3249 64.6428 44.0683 60.7877 40.2132L58.1392 37.5647C53.8033 33.2288 59.959 31.4634 62.0997 33.6041L64.7482 36.2526C70.7985 42.3029 70.8238 52.122 64.8048 58.1411C58.7855 64.1603 48.9663 64.135 42.9161 58.0848L22.8417 38.0104C19.248 34.4166 13.4157 34.4016 9.84047 37.9769C6.26511 41.5522 6.28014 47.3845 9.87385 50.9782L19.0087 60.113C23.3446 64.4489 23.3628 71.4857 19.0491 75.7994L3.06702 91.7815L-0.913985 87.8005L15.0681 71.8184C17.1978 69.6887 17.1889 66.2144 15.0481 64.0736L5.9133 54.9388C0.124459 49.1499 0.100254 39.7551 5.85935 33.996C11.6185 28.2368 21.0134 28.261 26.8023 34.0498Z" fill="#575757"/>
<path fill-rule="evenodd" clip-rule="evenodd" d="M64.2502 54.3297C64.3032 54.2767 64.3885 54.2671 64.4535 54.3111C64.5271 54.361 64.5468 54.461 64.4974 54.5342C64.0418 55.2108 63.5159 55.8489 62.9342 56.4305C62.8703 56.4915 62.8039 56.5595 62.7379 56.6227C62.6741 56.684 62.5725 56.6815 62.5107 56.6172C62.4492 56.5531 62.4533 56.4546 62.5146 56.3901C62.5787 56.3288 62.6424 56.2665 62.7055 56.2033C62.7057 56.2031 62.7061 56.2028 62.7063 56.2025C63.2735 55.6353 63.7863 55.0131 64.2306 54.3534C64.2365 54.3448 64.243 54.3369 64.2502 54.3297ZM57.9355 59.1922C57.9519 59.1758 57.9723 59.1625 57.9958 59.1545C58.8375 58.8636 59.6486 58.4808 60.4064 58.0169C60.4818 57.9709 60.5807 57.9949 60.6274 58.0705C60.6741 58.1462 60.6509 58.2449 60.5754 58.2912C59.7982 58.7671 58.9663 59.1597 58.1028 59.4581C58.0192 59.487 57.9274 59.4425 57.8979 59.3587C57.8768 59.2984 57.8934 59.2343 57.9355 59.1922ZM66.2221 49.3368C66.2574 49.3015 66.3088 49.2834 66.362 49.2925C66.4496 49.3072 66.5089 49.3901 66.4947 49.4777C66.3482 50.3807 66.1042 51.268 65.7697 52.1153C65.7373 52.1977 65.644 52.2376 65.5616 52.2043C65.479 52.1713 65.4384 52.0778 65.4708 51.9955C65.797 51.1694 66.0347 50.3043 66.1777 49.4239C66.1833 49.3896 66.1994 49.3596 66.2221 49.3368ZM52.5936 59.8275C52.6261 59.795 52.6722 59.7769 52.7216 59.7815C53.6102 59.8659 54.5094 59.8553 55.3943 59.7505C55.4824 59.7399 55.5628 59.8029 55.5738 59.891C55.5848 59.979 55.5225 60.0588 55.4345 60.0693C54.5272 60.1769 53.605 60.1877 52.6936 60.1013C52.6053 60.093 52.5399 60.0146 52.5475 59.9262C52.551 59.8874 52.568 59.8531 52.5936 59.8275ZM65.9422 43.9581C65.9614 43.9389 65.9858 43.9243 66.0141 43.9168C66.0998 43.8942 66.1879 43.9454 66.2112 44.0311C66.4506 44.9148 66.5962 45.8267 66.6437 46.7417C66.6482 46.8302 66.5801 46.9051 66.4917 46.9092C66.4031 46.9132 66.3276 46.8444 66.3229 46.7558C66.2767 45.8638 66.1347 44.9747 65.9011 44.113C65.8856 44.0556 65.9032 43.9971 65.9422 43.9581ZM47.453 58.1934C47.5029 58.1435 47.5818 58.1313 47.6463 58.1683C48.4213 58.6138 49.2467 58.9768 50.0993 59.2475C50.1838 59.2745 50.2313 59.3647 50.2051 59.4492C50.1789 59.5338 50.0889 59.5805 50.0041 59.5536C49.1294 59.2759 48.2831 58.9034 47.4879 58.4464C47.4106 58.4022 47.3835 58.3039 47.4273 58.227C47.4346 58.2145 47.4432 58.2031 47.453 58.1934ZM63.4548 39.165C63.4584 39.1613 63.462 39.1579 63.4661 39.1546C63.5341 39.0984 63.6355 39.1083 63.6923 39.1769C64.2795 39.8854 64.7911 40.6569 65.213 41.4699C65.254 41.5488 65.2236 41.6456 65.1448 41.6861C65.0661 41.7264 64.9691 41.6951 64.9282 41.6161C64.5169 40.8235 64.0181 40.0715 63.4456 39.3807C63.3921 39.3161 63.3971 39.2227 63.4548 39.165ZM43.3178 54.6837C43.3803 54.6212 43.482 54.6216 43.5449 54.6845L44.998 56.1375C45.1531 56.2927 45.314 56.4457 45.4762 56.5921C45.5423 56.6516 45.5479 56.7531 45.4888 56.8189C45.4299 56.8844 45.328 56.8894 45.2619 56.8299C45.0957 56.6797 44.9307 56.5228 44.7717 56.3638L43.3187 54.9108C43.2558 54.8479 43.2553 54.7462 43.3178 54.6837ZM61.7981 37.2019C61.861 37.2648 61.8614 37.3666 61.7989 37.429C61.7365 37.4915 61.6347 37.4911 61.5718 37.4282L61.7981 37.2019ZM11.5103 79.2427L13.4216 77.3314C13.4841 77.269 13.5858 77.2694 13.6488 77.3323C13.7117 77.3952 13.7121 77.4969 13.6496 77.5594L11.7383 79.4707C11.6758 79.5332 11.5741 79.5328 11.5112 79.4699C11.4483 79.4069 11.4479 79.3052 11.5103 79.2427ZM7.68781 83.0653L9.59913 81.154C9.66169 81.0914 9.76332 81.0919 9.82624 81.1548C9.88916 81.2177 9.88965 81.3193 9.82709 81.3819L7.91577 83.2932C7.85343 83.3556 7.75157 83.3553 7.68865 83.2924C7.62574 83.2295 7.62547 83.1276 7.68781 83.0653ZM3.8654 86.8877L5.7766 84.9765C5.83917 84.9139 5.9408 84.9144 6.00372 84.9773C6.06664 85.0402 6.06713 85.1419 6.00456 85.2044L4.09336 87.1156C4.0308 87.1782 3.92916 87.1777 3.86624 87.1148C3.80333 87.0519 3.80284 86.9502 3.8654 86.8877ZM17.2355 73.5005C17.2951 73.4408 17.3922 73.4379 17.4561 73.4955C17.5224 73.555 17.5283 73.6566 17.4694 73.7223C17.3685 73.8346 17.2629 73.9461 17.1549 74.0541L15.5609 75.6481C15.4984 75.7106 15.3967 75.7101 15.3338 75.6472C15.2709 75.5843 15.2704 75.4827 15.333 75.4201L16.9269 73.8261C17.0308 73.7223 17.1326 73.6148 17.2295 73.5069C17.2316 73.5047 17.2335 73.5025 17.2355 73.5005ZM39.4669 50.8328C39.5294 50.7703 39.631 50.7706 39.694 50.8336L41.6195 52.7591C41.6824 52.822 41.6828 52.9237 41.6203 52.9862C41.5578 53.0487 41.4561 53.0483 41.3932 52.9853L39.4677 51.0599C39.4047 50.9968 39.4043 50.8953 39.4669 50.8328ZM19.3117 68.6106C19.3436 68.5787 19.3888 68.5606 19.4373 68.5645C19.5259 68.5717 19.5924 68.649 19.586 68.7375C19.5183 69.6619 19.3018 70.5605 18.9421 71.4082C18.9075 71.4895 18.8132 71.527 18.7315 71.492C18.6499 71.4567 18.6116 71.3623 18.6461 71.2808C18.9922 70.4654 19.2005 69.601 19.2656 68.7116C19.2684 68.6719 19.2856 68.6366 19.3117 68.6106ZM35.6158 46.9816C35.6782 46.9192 35.7801 46.9197 35.8429 46.9825L37.7684 48.908C37.8314 48.9709 37.8317 49.0727 37.7693 49.1351C37.7067 49.1977 37.6051 49.1972 37.5422 49.1343L35.6166 47.2087C35.5538 47.1459 35.5532 47.0442 35.6158 46.9816ZM17.9757 63.4423C17.9833 63.4346 17.9918 63.4274 18.0015 63.4212C18.0754 63.373 18.1751 63.3944 18.2238 63.4688C18.7321 64.2453 19.1074 65.0951 19.3392 65.9942C19.3613 66.0801 19.3095 66.1674 19.2237 66.1889C19.1379 66.2105 19.0504 66.1582 19.0281 66.072C18.8052 65.2074 18.4443 64.3901 17.9555 63.6434C17.913 63.5785 17.9233 63.4946 17.9757 63.4423ZM31.7647 43.1306C31.8272 43.0681 31.929 43.0686 31.9918 43.1314L33.9174 45.057C33.9804 45.12 33.9807 45.2217 33.9183 45.2841C33.8557 45.3467 33.7542 45.3463 33.6911 45.2833L31.7656 43.3577C31.7028 43.2949 31.7022 43.1931 31.7647 43.1306ZM14.2591 59.4752C14.3215 59.4128 14.4232 59.413 14.4862 59.4761L16.4117 61.4015C16.4746 61.4644 16.475 61.5662 16.4125 61.6286C16.3499 61.6912 16.2483 61.6907 16.1854 61.6278L14.2599 59.7023C14.1969 59.6393 14.1965 59.5378 14.2591 59.4752ZM27.9138 39.2797C27.9762 39.2172 28.0779 39.2175 28.1409 39.2805L30.0665 41.2061C30.1293 41.2689 30.1298 41.3707 30.0673 41.4332C30.0048 41.4958 29.903 41.4951 29.8402 41.4323L27.9146 39.5068C27.8516 39.4437 27.8512 39.3422 27.9138 39.2797ZM10.4079 55.6241C10.4704 55.5616 10.5723 55.5621 10.6351 55.6249L12.5606 57.5505C12.6235 57.6134 12.6239 57.7151 12.5615 57.7776C12.4989 57.8402 12.3973 57.8397 12.3344 57.7767L10.4088 55.8512C10.346 55.7884 10.3454 55.6866 10.4079 55.6241ZM24.0435 35.4494C24.1026 35.3904 24.1982 35.3867 24.2626 35.4429C24.4741 35.6275 24.6824 35.822 24.8818 36.0214L26.2155 37.355C26.2783 37.4178 26.2787 37.5197 26.2163 37.5822C26.1537 37.6447 26.052 37.6441 25.9892 37.5813L24.6555 36.2476C24.4613 36.0534 24.2583 35.864 24.0524 35.6841C23.9853 35.6256 23.9779 35.5241 24.036 35.4575C24.0383 35.4546 24.041 35.4519 24.0435 35.4494ZM6.63964 51.6983C6.64462 51.6933 6.65017 51.6884 6.65617 51.684C6.7266 51.6307 6.82738 51.6448 6.88135 51.7155C7.20909 52.1467 7.57094 52.561 7.95665 52.9465L8.7096 53.6994C8.77263 53.7625 8.7729 53.8641 8.71044 53.9266C8.64788 53.9891 8.54636 53.9887 8.48333 53.9257L7.73038 53.1728C7.3343 52.7769 6.96298 52.3515 6.62623 51.9089C6.57693 51.844 6.58387 51.754 6.63964 51.6983ZM19.2896 32.8982C19.3287 32.8591 19.3873 32.8415 19.4449 32.8571C20.3314 33.0995 21.1909 33.4424 21.9996 33.8766C22.0779 33.9187 22.1079 34.0161 22.0664 34.0941C22.0248 34.1719 21.9277 34.2013 21.8493 34.1594C21.062 33.7366 20.2253 33.4027 19.3623 33.1669C19.2767 33.1436 19.2256 33.0551 19.2485 32.9696C19.256 32.9416 19.2704 32.9173 19.2896 32.8982ZM4.41839 46.7853C4.44 46.7637 4.46811 46.7479 4.50056 46.7417C4.58748 46.7247 4.67218 46.7816 4.68976 46.8686C4.86642 47.7449 5.14236 48.6015 5.5099 49.4148C5.54654 49.4958 5.51078 49.5906 5.42995 49.6267C5.34923 49.6627 5.25405 49.6262 5.21741 49.5452C4.83991 48.7099 4.55639 47.83 4.37498 46.9299C4.36388 46.8754 4.38196 46.8217 4.41839 46.7853ZM13.9138 32.6708C13.9357 32.6488 13.9644 32.6332 13.9974 32.627C14.8959 32.4609 15.8159 32.3962 16.7315 32.4347C16.8202 32.4386 16.8894 32.5134 16.8864 32.6021C16.8833 32.6907 16.809 32.7596 16.7203 32.7557C15.8287 32.7181 14.933 32.7811 14.058 32.9428C13.9709 32.959 13.8868 32.9013 13.87 32.8139C13.8595 32.7597 13.8776 32.707 13.9138 32.6708ZM4.5549 41.4091C4.5937 41.3703 4.65155 41.3526 4.70884 41.3676C4.79477 41.3904 4.84654 41.4781 4.82471 41.564C4.60398 42.4251 4.48056 43.3142 4.45787 44.2068C4.4557 44.2954 4.38203 44.3649 4.29333 44.362C4.20475 44.3592 4.13475 44.2849 4.1368 44.1962C4.1602 43.2796 4.28683 42.3666 4.51338 41.4821C4.52077 41.4533 4.53544 41.4286 4.5549 41.4091ZM8.99609 34.8094C9.00152 34.804 9.00729 34.7986 9.01386 34.7939C9.74734 34.2494 10.5436 33.7889 11.3804 33.4251C11.4615 33.3899 11.5563 33.4273 11.5923 33.5087C11.6282 33.5902 11.5917 33.6848 11.5103 33.72C10.6957 34.0741 9.92062 34.5222 9.2065 35.0524C9.13561 35.105 9.03494 35.0899 8.98165 35.0185C8.93315 34.9537 8.94088 34.8646 8.99609 34.8094ZM7.24391 36.6425C7.31146 36.7003 7.31968 36.8018 7.26235 36.8689C6.68391 37.546 6.18339 38.2882 5.7749 39.0751C5.7342 39.1536 5.63722 39.1838 5.55837 39.1423C5.47952 39.101 5.44862 39.0038 5.48954 38.9253C5.9092 38.1172 6.42327 37.3546 7.01743 36.6593C7.02025 36.656 7.02308 36.6529 7.02602 36.65C7.08451 36.5915 7.17955 36.5874 7.24391 36.6425Z" fill="white"/>
<path fill-rule="evenodd" clip-rule="evenodd" d="M78.7612 23.2125L58.6629 3.11411C55.0857 -0.46305 49.2837 -0.481342 45.7291 3.07319C42.1747 6.62762 42.1931 12.4296 45.7703 16.0067L65.21 35.8143C69.8336 40.4379 62.0917 42.654 60.2311 40.7933L40.7913 20.9857C34.4512 14.6456 34.4187 4.36229 40.7185 -1.93747C47.0185 -8.23746 57.3018 -8.20495 63.6419 -1.86487L83.7402 18.2335C87.0557 21.5489 92.4332 21.5659 95.7275 18.2715C99.022 14.977 99.0051 9.59951 95.6896 6.28405L86.5439 -2.86167C81.9202 -7.48537 81.8964 -14.9846 86.4909 -19.5791L102.473 -35.5612L107.484 -30.5505L91.5016 -14.5684C89.6525 -12.7194 89.6621 -9.70142 91.5229 -7.84064L100.669 1.30507C106.747 7.38346 106.778 17.2422 100.738 23.2821C94.6984 29.322 84.8396 29.2908 78.7612 23.2125Z" fill="white"/>
<path fill-rule="evenodd" clip-rule="evenodd" d="M79.1985 22.7504L59.1241 2.67604C55.269 -1.17906 49.0124 -1.19518 45.1771 2.64011C41.3419 6.47539 41.358 12.732 45.2131 16.5871L65.6786 37.0541C70.9063 43.5374 63.9372 43.5249 61.7965 41.3841L41.2525 20.5476C35.2023 14.4974 35.177 4.67823 41.196 -1.34079C47.2153 -7.36003 57.0344 -7.33473 63.0846 -1.28451L83.1591 18.7899C86.7528 22.3836 92.5851 22.3986 96.1603 18.8234C99.7357 15.248 99.7206 9.41576 96.1269 5.82204L86.9921 -3.31278C82.6562 -7.64867 82.638 -14.6855 86.9517 -18.9992L102.934 -34.9812L106.915 -31.0002L90.9327 -15.0182C88.8029 -12.8884 88.8119 -9.41409 90.9526 -7.27333L100.087 1.86149C105.876 7.65033 105.901 17.0452 100.141 22.8043C94.3822 28.5635 84.9874 28.5393 79.1985 22.7504Z" fill="#575757"/>
<path fill-rule="evenodd" clip-rule="evenodd" d="M57.2089 32.5753C57.1454 32.6387 57.043 32.6393 56.9799 32.5762L55.0545 30.6508C54.9916 30.5879 54.992 30.4853 55.0555 30.4218C55.119 30.3583 55.2215 30.3579 55.2844 30.4208L57.2099 32.3463C57.2729 32.4093 57.2725 32.5117 57.2089 32.5753ZM61.06 36.4264C60.9966 36.4899 60.8939 36.4902 60.8311 36.4274L58.9055 34.5018C58.8426 34.4389 58.843 34.3363 58.9065 34.2729C58.9701 34.2093 59.0725 34.209 59.1354 34.2719L61.061 36.1975C61.1238 36.2603 61.1236 36.3628 61.06 36.4264ZM64.8271 40.3535C64.822 40.3585 64.8164 40.3635 64.8103 40.368C64.7389 40.4223 64.6374 40.4089 64.5835 40.338C64.2566 39.906 63.8952 39.4913 63.5095 39.1058L62.7565 38.3528C62.6935 38.2898 62.6941 38.1874 62.7575 38.1239C62.8211 38.0603 62.9234 38.0599 62.9865 38.1229L63.7394 38.8759C64.1355 39.2717 64.5064 39.6976 64.8423 40.1411C64.8915 40.2061 64.8837 40.2968 64.8271 40.3535Z" fill="white"/>
<path fill-rule="evenodd" clip-rule="evenodd" d="M49.6864 25.0553C49.6229 25.1188 49.5204 25.1193 49.4574 25.0563L47.5319 23.1308C47.469 23.0679 47.4695 22.9653 47.5329 22.9019C47.5965 22.8383 47.699 22.838 47.7619 22.9009L49.6873 24.8264C49.7504 24.8894 49.7499 24.9917 49.6864 25.0553ZM53.5375 28.9065C53.474 28.9699 53.3714 28.9702 53.3086 28.9074L51.383 26.9819C51.3201 26.9189 51.3205 26.8164 51.384 26.7529C51.4475 26.6893 51.55 26.689 51.6129 26.7519L53.5385 28.6775C53.6013 28.7403 53.6011 28.8429 53.5375 28.9065Z" fill="white"/>
<path fill-rule="evenodd" clip-rule="evenodd" d="M45.866 21.235C45.8026 21.2984 45.7001 21.299 45.6371 21.236L43.7116 19.3105C43.6487 19.2476 43.6492 19.145 43.7126 19.0816C43.7762 19.018 43.8786 19.0177 43.9416 19.0806L45.867 21.006C45.9301 21.0691 45.9296 21.1714 45.866 21.235Z" fill="white"/>
<path fill-rule="evenodd" clip-rule="evenodd" d="M41.751 2.47041C41.6979 2.52347 41.6127 2.53303 41.5477 2.48907C41.474 2.43917 41.4543 2.33917 41.5037 2.26588C41.9594 1.58931 42.4853 0.951256 43.0669 0.369625C43.1308 0.308655 43.1972 0.240655 43.2632 0.177422C43.327 0.116112 43.4287 0.118647 43.4905 0.182922C43.5519 0.247083 43.5478 0.345521 43.4865 0.41002C43.4225 0.47133 43.3588 0.533663 43.2957 0.596793C43.2954 0.597019 43.2951 0.597358 43.2949 0.597584C42.7276 1.16485 42.2148 1.78705 41.7705 2.44675C41.7647 2.45536 41.7581 2.46328 41.751 2.47041ZM48.0656 -2.39211C48.0492 -2.37571 48.0288 -2.36238 48.0053 -2.35441C47.1636 -2.06343 46.3525 -1.68069 45.5948 -1.21679C45.5193 -1.17074 45.4204 -1.19472 45.3737 -1.27041C45.327 -1.3461 45.3502 -1.44481 45.4257 -1.49109C46.2029 -1.96695 47.0349 -2.3596 47.8984 -2.658C47.982 -2.68687 48.0738 -2.64236 48.1033 -2.55856C48.1244 -2.4983 48.1077 -2.4342 48.0656 -2.39211ZM39.779 7.4633C39.7437 7.4986 39.6923 7.51669 39.6392 7.50764C39.5515 7.49289 39.4922 7.41 39.5064 7.32239C39.6529 6.41948 39.897 5.53215 40.2314 4.68479C40.2638 4.60247 40.3571 4.5625 40.4396 4.59585C40.5221 4.62886 40.5627 4.72236 40.5303 4.80468C40.2042 5.63072 39.9664 6.49582 39.8234 7.37626C39.8179 7.41053 39.8017 7.44056 39.779 7.4633ZM53.4075 -3.02737C53.3751 -2.9949 53.3289 -2.97679 53.2795 -2.9814C52.391 -3.06578 51.4917 -3.05516 50.6068 -2.95034C50.5188 -2.93976 50.4384 -3.00275 50.4274 -3.09091C50.4164 -3.17884 50.4786 -3.25867 50.5666 -3.26913C51.474 -3.37681 52.3961 -3.38758 53.3075 -3.30118C53.3959 -3.29291 53.4612 -3.21442 53.4536 -3.12611C53.4501 -3.08728 53.4331 -3.05294 53.4075 -3.02737ZM40.0589 12.842C40.0397 12.8613 40.0153 12.8758 39.9871 12.8833C39.9013 12.9059 39.8132 12.8547 39.79 12.769C39.5505 11.8854 39.4049 10.9734 39.3575 10.0584C39.3529 9.96995 39.421 9.89503 39.5095 9.89093C39.598 9.88694 39.6736 9.9557 39.6782 10.0443C39.7245 10.9363 39.8664 11.8254 40.1 12.6872C40.1156 12.7446 40.098 12.803 40.0589 12.842ZM58.5482 -1.39327C58.4983 -1.34338 58.4193 -1.33118 58.3549 -1.36821C57.5798 -1.81362 56.7545 -2.17666 55.9018 -2.44737C55.8173 -2.47437 55.7699 -2.56459 55.796 -2.6491C55.8223 -2.73371 55.9123 -2.78039 55.9971 -2.7535C56.8717 -2.47579 57.7181 -2.10324 58.5133 -1.64629C58.5906 -1.60206 58.6176 -1.50373 58.5738 -1.4269C58.5665 -1.41432 58.5579 -1.403 58.5482 -1.39327ZM42.5464 17.6352C42.5427 17.6388 42.5391 17.6422 42.535 17.6456C42.467 17.7018 42.3657 17.6918 42.3089 17.6233C41.7216 16.9148 41.21 16.1432 40.7881 15.3303C40.7472 15.2513 40.7776 15.1545 40.8564 15.1141C40.935 15.0737 41.032 15.1051 41.0729 15.184C41.4842 15.9766 41.983 16.7286 42.5555 17.4194C42.609 17.484 42.6041 17.5775 42.5464 17.6352ZM62.6833 2.11645C62.6209 2.1789 62.5191 2.17852 62.4562 2.1156L61.0032 0.66259C60.8481 0.507464 60.6871 0.354473 60.5249 0.208064C60.4588 0.148542 60.4532 0.0470021 60.5124 -0.0187543C60.5713 -0.0842844 60.6731 -0.0892431 60.7392 -0.0297212C60.9054 0.12045 61.0704 0.277317 61.2295 0.436319L62.6825 1.88933C62.7454 1.95225 62.7459 2.05388 62.6833 2.11645ZM94.4908 -22.4426L92.5795 -20.5313C92.517 -20.4688 92.4153 -20.4692 92.3524 -20.5321C92.2895 -20.5951 92.2891 -20.6968 92.3515 -20.7593L94.2628 -22.6706C94.3253 -22.733 94.427 -22.7326 94.49 -22.6697C94.5529 -22.6068 94.5533 -22.5051 94.4908 -22.4426ZM98.3133 -26.2651L96.402 -24.3538C96.3394 -24.2913 96.2378 -24.2917 96.1749 -24.3547C96.112 -24.4176 96.1115 -24.5192 96.174 -24.5818L98.0854 -26.4931C98.1477 -26.5554 98.2496 -26.5552 98.3125 -26.4922C98.3754 -26.4293 98.3757 -26.3275 98.3133 -26.2651ZM102.136 -30.0875L100.225 -28.1763C100.162 -28.1138 100.06 -28.1143 99.9974 -28.1772C99.9345 -28.2401 99.934 -28.3417 99.9966 -28.4043L101.908 -30.3155C101.97 -30.3781 102.072 -30.3776 102.135 -30.3147C102.198 -30.2517 102.198 -30.1501 102.136 -30.0875ZM88.7656 -16.7003C88.706 -16.6407 88.6089 -16.6378 88.545 -16.6954C88.4787 -16.7549 88.4729 -16.8564 88.5318 -16.9222C88.6327 -17.0345 88.7382 -17.1459 88.8462 -17.254L90.4402 -18.8479C90.5028 -18.9105 90.6044 -18.91 90.6673 -18.8471C90.7302 -18.7842 90.7307 -18.6825 90.6682 -18.62L89.0742 -17.026C88.9703 -16.9221 88.8685 -16.8146 88.7716 -16.7068C88.7696 -16.7045 88.7677 -16.7024 88.7656 -16.7003ZM66.5342 5.96737C66.4718 6.02982 66.3701 6.02956 66.3071 5.96653L64.3817 4.04107C64.3187 3.97815 64.3184 3.8764 64.3808 3.81395C64.4434 3.75139 64.545 3.75188 64.6079 3.81479L66.5334 5.74026C66.5964 5.80329 66.5968 5.90481 66.5342 5.96737ZM86.6895 -11.8105C86.6576 -11.7786 86.6123 -11.7605 86.5638 -11.7644C86.4752 -11.7715 86.4087 -11.8489 86.4151 -11.9373C86.4829 -12.8618 86.6994 -13.7603 87.059 -14.608C87.0936 -14.6893 87.1879 -14.7269 87.2696 -14.6919C87.3513 -14.6566 87.3895 -14.5622 87.355 -14.4807C87.0089 -13.6653 86.8006 -12.8009 86.7355 -11.9115C86.7327 -11.8718 86.7155 -11.8365 86.6895 -11.8105ZM70.3854 9.81852C70.3229 9.88097 70.2211 9.88048 70.1583 9.81768L68.2327 7.8921C68.1698 7.82919 68.1694 7.72744 68.2318 7.66499C68.2944 7.60242 68.396 7.60291 68.459 7.66583L70.3845 9.59141C70.4473 9.65421 70.4479 9.75596 70.3854 9.81852ZM88.0255 -6.64212C88.0178 -6.63442 88.0093 -6.6273 87.9997 -6.62109C87.9257 -6.57288 87.826 -6.59426 87.7774 -6.6687C87.2691 -7.44516 86.8938 -8.29493 86.662 -9.19402C86.6398 -9.27995 86.6916 -9.36731 86.7774 -9.3888C86.8633 -9.41039 86.9507 -9.35806 86.973 -9.2719C87.196 -8.40725 87.5568 -7.59001 88.0456 -6.84326C88.0881 -6.77838 88.0779 -6.6945 88.0255 -6.64212ZM74.2364 13.6696C74.174 13.732 74.0721 13.7315 74.0093 13.6687L72.0837 11.7431C72.0207 11.6801 72.0204 11.5785 72.0829 11.516C72.1454 11.4535 72.247 11.4538 72.31 11.5169L74.2356 13.4424C74.2984 13.5052 74.299 13.607 74.2364 13.6696ZM91.742 -2.67507C91.6796 -2.61262 91.578 -2.61288 91.5149 -2.67592L89.5895 -4.60138C89.5265 -4.66429 89.5262 -4.76604 89.5886 -4.82849C89.6512 -4.89106 89.7528 -4.89056 89.8157 -4.82765L91.7412 -2.90219C91.8042 -2.83916 91.8046 -2.73764 91.742 -2.67507ZM78.0873 17.5205C78.0249 17.5829 77.9233 17.5827 77.8602 17.5196L75.9346 15.5941C75.8718 15.5313 75.8714 15.4294 75.9338 15.3669C75.9964 15.3044 76.0981 15.305 76.1609 15.3678L78.0865 17.2934C78.1495 17.3564 78.1499 17.4579 78.0873 17.5205ZM95.5932 1.17608C95.5307 1.23853 95.4289 1.23804 95.3661 1.17523L93.4405 -0.750341C93.3776 -0.813258 93.3772 -0.915006 93.4397 -0.977457C93.5022 -1.04002 93.6039 -1.03953 93.6668 -0.976613L95.5923 0.948962C95.6552 1.01176 95.6558 1.11351 95.5932 1.17608ZM81.9576 21.3507C81.8985 21.4097 81.8029 21.4135 81.7386 21.3573C81.527 21.1726 81.3187 20.9781 81.1194 20.7788L79.7857 19.4451C79.7229 19.3823 79.7224 19.2804 79.7848 19.218C79.8474 19.1554 79.9492 19.156 80.012 19.2188L81.3456 20.5525C81.5399 20.7467 81.7428 20.9361 81.9488 21.1161C82.0159 21.1746 82.0232 21.276 81.9652 21.3427C81.9628 21.3455 81.9601 21.3482 81.9576 21.3507ZM99.3615 5.10187C99.3565 5.10684 99.351 5.11171 99.345 5.11611C99.2745 5.16945 99.1738 5.15533 99.1198 5.08461C98.792 4.65347 98.4302 4.23912 98.0445 3.85364L97.2915 3.10069C97.2285 3.03766 97.2282 2.93603 97.2907 2.87358C97.3533 2.81101 97.4548 2.81139 97.5178 2.87442L98.2708 3.62737C98.6668 4.02322 99.0382 4.44862 99.3749 4.89127C99.4242 4.95618 99.4173 5.04609 99.3615 5.10187ZM86.7116 23.9019C86.6724 23.9411 86.6138 23.9587 86.5563 23.943C85.6697 23.7007 84.8102 23.3577 84.0016 22.9235C83.9233 22.8815 83.8933 22.784 83.9348 22.7061C83.9764 22.6282 84.0735 22.5988 84.1519 22.6408C84.9391 23.0635 85.7758 23.3974 86.6388 23.6332C86.7244 23.6566 86.7755 23.745 86.7526 23.8305C86.7451 23.8585 86.7307 23.8828 86.7116 23.9019ZM101.583 10.0148C101.561 10.0365 101.533 10.0522 101.501 10.0585C101.414 10.0754 101.329 10.0186 101.311 9.9315C101.135 9.05522 100.859 8.19866 100.491 7.38536C100.455 7.30438 100.49 7.20958 100.571 7.17342C100.652 7.13739 100.747 7.17396 100.784 7.25495C101.161 8.0902 101.445 8.97018 101.626 9.87022C101.637 9.92477 101.619 9.97841 101.583 10.0148ZM92.0874 24.1294C92.0654 24.1513 92.0368 24.167 92.0037 24.1731C91.1052 24.3392 90.1852 24.4039 89.2697 24.3654C89.181 24.3616 89.1118 24.2867 89.1147 24.198C89.1178 24.1095 89.1922 24.0406 89.2809 24.0444C90.1724 24.082 91.0681 24.0191 91.9432 23.8573C92.0302 23.8412 92.1143 23.8988 92.1311 23.9862C92.1417 24.0404 92.1236 24.0932 92.0874 24.1294ZM101.446 15.391C101.407 15.4298 101.35 15.4475 101.292 15.4326C101.206 15.4098 101.155 15.322 101.176 15.2361C101.397 14.3751 101.521 13.4859 101.543 12.5933C101.545 12.5048 101.619 12.4352 101.708 12.4381C101.796 12.441 101.866 12.5153 101.864 12.604C101.841 13.5205 101.714 14.4336 101.488 15.318C101.48 15.3468 101.466 15.3715 101.446 15.391ZM97.0051 21.9907C96.9996 21.9962 96.9938 22.0015 96.9873 22.0062C96.2538 22.5507 95.4575 23.0112 94.6207 23.375C94.5397 23.4102 94.4448 23.3729 94.4089 23.2914C94.3729 23.21 94.4095 23.1153 94.4909 23.0802C95.3055 22.7261 96.0805 22.2779 96.7946 21.7477C96.8655 21.6951 96.9662 21.7102 97.0195 21.7816C97.068 21.8464 97.0603 21.9355 97.0051 21.9907ZM98.7572 20.1576C98.6897 20.0998 98.6815 19.9984 98.7388 19.9313C99.3172 19.2541 99.8177 18.5119 100.226 17.725C100.267 17.6465 100.364 17.6163 100.443 17.6578C100.522 17.6991 100.553 17.7963 100.512 17.8749C100.092 18.683 99.5779 19.4455 98.9837 20.1409C98.9809 20.1442 98.9781 20.1472 98.9751 20.1502C98.9166 20.2087 98.8216 20.2127 98.7572 20.1576Z" fill="white"/>
</g>
</svg>
