<svg width="357" height="854" viewBox="0 0 357 854" fill="none" xmlns="http://www.w3.org/2000/svg">
<path fill-rule="evenodd" clip-rule="evenodd" d="M0 598.571C0 547.735 41.421 506.378 92.3361 506.378H260.688C290.652 506.378 315.029 482.038 315.029 452.121C315.029 422.205 290.652 397.866 260.688 397.866H238.477C199.748 397.866 168.239 366.407 168.239 327.738V281.72C168.239 266.158 155.559 253.498 139.973 253.498C84.9949 253.498 40.2668 208.84 40.2668 153.948V0.5L82.2382 0.5V153.948C82.2382 185.733 108.138 211.592 139.973 211.592C178.702 211.592 210.211 243.051 210.211 281.72V327.738C210.211 343.299 222.891 355.96 238.477 355.96H260.688C313.795 355.96 357 399.098 357 452.121C357 505.145 313.795 548.284 260.688 548.284H92.3361C64.5644 548.284 41.9714 570.842 41.9714 598.57C41.9714 626.298 64.5644 648.857 92.3361 648.857H168.944C207.674 648.857 239.183 680.316 239.183 718.986V853.5H197.211V718.986C197.211 703.423 184.531 690.763 168.944 690.763H92.3361C41.421 690.763 0 649.405 0 598.571" fill="white"/>
<path fill-rule="evenodd" clip-rule="evenodd" d="M4.5 598.071C4.5 549.598 43.949 510.163 92.4387 510.163H260.59C292.882 510.163 319.153 483.902 319.153 451.622C319.153 419.342 292.882 393.08 260.59 393.08H238.405C202.086 393.08 172.539 363.543 172.539 327.238V281.22C172.539 263.295 157.95 248.712 140.019 248.712C87.471 248.712 44.7188 205.976 44.7188 153.448V0L78.0654 0V153.448C78.0654 187.596 105.857 215.378 140.019 215.378C176.338 215.378 205.886 244.915 205.886 281.22V327.238C205.886 345.163 220.473 359.746 238.405 359.746H260.59C311.269 359.746 352.5 400.961 352.5 451.621C352.5 502.282 311.269 543.498 260.59 543.498H92.4387C62.3363 543.498 37.8466 567.978 37.8466 598.07C37.8466 628.162 62.3363 652.643 92.4387 652.643H168.956C205.275 652.643 234.823 682.179 234.823 718.486V853H201.476V718.486C201.476 700.56 186.888 685.977 168.956 685.977H92.4387C43.949 685.977 4.5 646.543 4.5 598.071" fill="#575757"/>
<path fill-rule="evenodd" clip-rule="evenodd" d="M334.213 437.918C334.213 437.471 334.53 437.072 334.986 436.984C335.504 436.884 336.005 437.222 336.105 437.738C337.03 442.503 337.5 447.401 337.5 452.296C337.488 452.822 337.494 453.387 337.483 453.931C337.472 454.458 337.036 454.875 336.508 454.864C335.982 454.853 335.587 454.421 335.573 453.892C335.585 453.365 335.591 452.834 335.591 452.303C335.591 452.301 335.591 452.298 335.591 452.296C335.591 447.522 335.132 442.745 334.23 438.1C334.219 438.039 334.213 437.978 334.213 437.918ZM328.131 484.954C328.131 484.816 328.161 484.674 328.226 484.542C330.532 479.775 332.326 474.751 333.557 469.61C333.68 469.099 334.195 468.784 334.707 468.906C335.22 469.028 335.536 469.541 335.414 470.053C334.152 475.326 332.312 480.48 329.945 485.37C329.716 485.843 329.145 486.042 328.671 485.813C328.33 485.649 328.131 485.309 328.131 484.954ZM321.561 408.607C321.561 408.31 321.7 408.018 321.961 407.832C322.389 407.526 322.985 407.625 323.292 408.053C326.46 412.47 329.155 417.231 331.303 422.204C331.512 422.687 331.288 423.248 330.803 423.454C330.319 423.663 329.758 423.44 329.549 422.957C327.455 418.109 324.828 413.468 321.739 409.161C321.619 408.993 321.561 408.799 321.561 408.607ZM308.419 510.108C308.419 509.835 308.536 509.564 308.762 509.376C312.837 505.992 316.559 502.163 319.826 497.998C320.15 497.583 320.751 497.509 321.166 497.834C321.581 498.158 321.654 498.756 321.33 499.17C317.98 503.442 314.163 507.368 309.984 510.839C309.58 511.177 308.977 511.121 308.639 510.718C308.491 510.54 308.419 510.323 308.419 510.108ZM297.861 387.15C297.861 386.988 297.902 386.825 297.989 386.674C298.253 386.218 298.837 386.063 299.293 386.326C303.997 389.037 308.426 392.262 312.457 395.912C312.847 396.266 312.875 396.868 312.522 397.257C312.168 397.646 311.563 397.675 311.173 397.322C307.243 393.762 302.925 390.618 298.337 387.975C298.032 387.799 297.861 387.479 297.861 387.15ZM280.045 524.865C280.045 524.445 280.324 524.061 280.749 523.946C285.861 522.558 290.838 520.613 295.543 518.164C296.01 517.922 296.586 518.102 296.831 518.568C297.075 519.034 296.894 519.609 296.426 519.853C291.6 522.365 286.495 524.359 281.25 525.783C280.742 525.922 280.216 525.622 280.078 525.114C280.056 525.03 280.045 524.947 280.045 524.865ZM267.368 377.447C267.368 377.417 267.369 377.387 267.372 377.356C267.422 376.833 267.888 376.448 268.413 376.498C273.84 377.008 279.214 378.102 284.386 379.748C284.888 379.908 285.166 380.443 285.005 380.945C284.845 381.445 284.308 381.722 283.805 381.562C278.763 379.957 273.525 378.892 268.233 378.394C267.739 378.347 267.368 377.933 267.368 377.447ZM248.026 527.497C248.026 526.971 248.454 526.544 248.981 526.544H261.152C262.452 526.544 263.766 526.511 265.059 526.444C265.585 526.417 266.034 526.821 266.061 527.346C266.089 527.87 265.683 528.319 265.157 528.347C263.832 528.415 262.484 528.449 261.152 528.449H248.981C248.454 528.449 248.026 528.023 248.026 527.497ZM235.126 377.031C235.126 377.013 235.127 376.994 235.128 376.976C235.158 376.451 235.609 376.049 236.135 376.079C237.056 376.131 237.993 376.158 238.921 376.158H252.208C252.735 376.158 253.163 376.584 253.163 377.11C253.163 377.636 252.735 378.062 252.208 378.062H238.921C237.958 378.062 236.984 378.035 236.027 377.98C235.519 377.952 235.126 377.532 235.126 377.031ZM217.668 764.704V748.617C217.668 748.091 218.096 747.665 218.623 747.665C219.15 747.665 219.578 748.091 219.578 748.617V764.704C219.578 765.229 219.15 765.656 218.623 765.656C218.096 765.656 217.668 765.229 217.668 764.704ZM217.668 796.876V780.789C217.668 780.263 218.096 779.837 218.623 779.837C219.15 779.837 219.578 780.263 219.578 780.789V796.876C219.578 797.401 219.15 797.828 218.623 797.828C218.096 797.828 217.668 797.401 217.668 796.876ZM217.668 829.048V812.962C217.668 812.435 218.096 812.01 218.623 812.01C219.15 812.01 219.578 812.435 219.578 812.962V829.048C219.578 829.574 219.15 830 218.623 830C218.096 830 217.668 829.574 217.668 829.048ZM217.597 716.445C217.597 715.943 217.991 715.522 218.5 715.496C219.027 715.467 219.477 715.87 219.505 716.395C219.553 717.292 219.578 718.205 219.578 719.114V732.53C219.578 733.057 219.15 733.482 218.623 733.482C218.096 733.482 217.668 733.057 217.668 732.53V719.114C217.668 718.24 217.645 717.359 217.599 716.498C217.598 716.479 217.597 716.462 217.597 716.445ZM215.769 527.497C215.769 526.971 216.196 526.544 216.724 526.544H232.853C233.38 526.544 233.807 526.971 233.807 527.497C233.807 528.023 233.38 528.449 232.853 528.449H216.724C216.196 528.449 215.769 528.023 215.769 527.497ZM205.812 687.13C205.812 686.862 205.926 686.595 206.146 686.407C206.547 686.065 207.149 686.11 207.493 686.509C211.081 690.685 213.937 695.377 215.981 700.458C216.177 700.946 215.939 701.501 215.451 701.697C214.961 701.892 214.405 701.656 214.208 701.168C212.243 696.28 209.495 691.766 206.043 687.749C205.888 687.57 205.812 687.349 205.812 687.13ZM205.772 365.178C205.772 364.957 205.849 364.735 206.004 364.555C206.349 364.158 206.951 364.113 207.351 364.457C211.366 367.913 215.883 370.669 220.777 372.647C221.266 372.844 221.502 373.399 221.303 373.887C221.105 374.374 220.548 374.609 220.06 374.412C214.972 372.356 210.277 369.491 206.104 365.899C205.885 365.71 205.772 365.445 205.772 365.178ZM189.693 337.953C189.693 337.511 190.003 337.115 190.455 337.022C190.971 336.915 191.476 337.246 191.583 337.761C192.654 342.927 194.563 347.854 197.255 352.407C197.524 352.859 197.373 353.444 196.918 353.71C196.464 353.978 195.879 353.827 195.611 353.374C192.811 348.642 190.827 343.518 189.714 338.147C189.699 338.081 189.693 338.017 189.693 337.953ZM188.671 321.941V305.855C188.671 305.329 189.098 304.902 189.626 304.902C190.152 304.902 190.581 305.329 190.581 305.855V321.941C190.581 322.467 190.152 322.894 189.626 322.894C189.098 322.894 188.671 322.467 188.671 321.941ZM187.986 273.722C187.986 273.265 188.316 272.862 188.782 272.784C189.302 272.696 189.794 273.046 189.882 273.565C190.346 276.312 190.581 279.129 190.581 281.936V289.769C190.581 290.294 190.152 290.721 189.626 290.721C189.098 290.721 188.671 290.294 188.671 289.769V281.936C188.671 279.233 188.444 276.523 187.999 273.881C187.99 273.828 187.986 273.774 187.986 273.722ZM183.511 527.497C183.511 526.971 183.939 526.544 184.465 526.544H200.595C201.122 526.544 201.55 526.971 201.55 527.497C201.55 528.023 201.122 528.449 200.595 528.449H184.465C183.939 528.449 183.511 528.023 183.511 527.497ZM178.571 671.002C178.571 670.938 178.577 670.872 178.591 670.805C178.699 670.291 179.206 669.962 179.721 670.07C185.102 671.199 190.233 673.195 194.969 676.004C195.422 676.272 195.571 676.858 195.302 677.309C195.032 677.761 194.447 677.909 193.993 677.64C189.438 674.94 184.504 673.019 179.329 671.934C178.879 671.839 178.571 671.443 178.571 671.002ZM172.938 245.926C172.938 245.693 173.023 245.461 173.194 245.277C173.554 244.893 174.157 244.871 174.544 245.229C178.577 248.97 181.948 253.311 184.561 258.13C184.812 258.594 184.639 259.171 184.175 259.422C183.711 259.672 183.133 259.499 182.881 259.037C180.367 254.4 177.124 250.223 173.243 246.623C173.041 246.436 172.938 246.181 172.938 245.926ZM151.253 527.497C151.253 526.971 151.681 526.544 152.208 526.544H168.337C168.865 526.544 169.292 526.971 169.292 527.497C169.292 528.023 168.865 528.449 168.337 528.449H152.208C151.681 528.449 151.253 528.023 151.253 527.497ZM146.39 669.948C146.39 669.423 146.817 668.996 147.345 668.996H163.474C164.001 668.996 164.428 669.423 164.428 669.948C164.428 670.475 164.001 670.901 163.474 670.901H147.345C146.817 670.901 146.39 670.475 146.39 669.948ZM144.038 232.989C144.038 232.959 144.04 232.93 144.043 232.899C144.091 232.376 144.557 231.991 145.081 232.04C150.569 232.554 155.895 233.954 160.909 236.201C161.389 236.417 161.602 236.98 161.388 237.46C161.172 237.94 160.606 238.154 160.125 237.938C155.303 235.776 150.182 234.431 144.904 233.936C144.408 233.89 144.038 233.475 144.038 232.989ZM118.996 527.497C118.996 526.971 119.423 526.544 119.951 526.544H136.08C136.606 526.544 137.035 526.971 137.035 527.497C137.035 528.023 136.606 528.449 136.08 528.449H119.951C119.423 528.449 118.996 528.023 118.996 527.497ZM114.132 669.948C114.132 669.423 114.56 668.996 115.086 668.996H131.216C131.743 668.996 132.17 669.423 132.17 669.948C132.17 670.475 131.743 670.901 131.216 670.901H115.086C114.56 670.901 114.132 670.475 114.132 669.948ZM112.354 228.028C112.354 227.919 112.373 227.809 112.412 227.701C112.592 227.207 113.14 226.953 113.636 227.134C118.613 228.945 123.799 230.249 129.052 231.01C129.574 231.085 129.932 231.569 129.861 232.089C129.785 232.61 129.3 232.971 128.778 232.895C123.396 232.116 118.08 230.779 112.981 228.923C112.594 228.782 112.354 228.416 112.354 228.028ZM86.7447 527.665C86.7447 527.168 87.1295 526.75 87.6346 526.716C89.2939 526.602 90.9809 526.544 92.6508 526.544H103.822C104.348 526.544 104.777 526.971 104.777 527.497C104.777 528.023 104.348 528.449 103.822 528.449H92.6508C91.0239 528.449 89.3808 528.506 87.7644 528.615C87.2383 528.652 86.7829 528.256 86.7467 527.731C86.7447 527.709 86.7447 527.686 86.7447 527.665ZM85.1398 211.191C85.1398 210.955 85.2267 210.719 85.4024 210.535C85.7652 210.154 86.3695 210.138 86.7524 210.499C90.6019 214.145 94.8362 217.407 99.3378 220.194C99.7856 220.471 99.9249 221.058 99.6462 221.504C99.3674 221.952 98.7783 222.089 98.3315 221.812C93.7201 218.956 89.3817 215.616 85.4377 211.881C85.2401 211.695 85.1398 211.443 85.1398 211.191ZM81.9071 669.286C81.9071 669.244 81.9099 669.2 81.9166 669.156C81.9882 668.635 82.4694 668.271 82.9917 668.341C86.17 668.776 89.4209 668.997 92.6508 668.996H98.9578C99.4858 668.996 99.9126 669.423 99.9126 669.948C99.9126 670.475 99.4858 670.901 98.9578 670.901H92.6508C89.334 670.902 85.9972 670.674 82.7329 670.228C82.2546 670.163 81.9071 669.755 81.9071 669.286ZM66.8556 184.963C66.8556 184.592 67.0732 184.241 67.436 184.087C67.922 183.88 68.4824 184.106 68.6896 184.59C70.7652 189.449 73.3554 194.118 76.3887 198.467C76.6904 198.899 76.5834 199.493 76.1509 199.793C75.7175 200.093 75.1227 199.986 74.8219 199.555C71.7142 195.099 69.0591 190.315 66.9329 185.336C66.8804 185.214 66.8556 185.088 66.8556 184.963ZM60.5848 41.038V24.9522C60.5848 24.4266 61.0135 24 61.5396 24C62.0676 24 62.4943 24.4266 62.4943 24.9522V41.038C62.4943 41.5646 62.0676 41.9903 61.5396 41.9903C61.0135 41.9903 60.5848 41.5646 60.5848 41.038ZM60.5848 73.2116V57.1248C60.5848 56.5992 61.0135 56.1726 61.5396 56.1726C62.0676 56.1726 62.4943 56.5992 62.4943 57.1248V73.2116C62.4943 73.7372 62.0676 74.1638 61.5396 74.1638C61.0135 74.1638 60.5848 73.7372 60.5848 73.2116ZM60.5848 105.383V89.2974C60.5848 88.7708 61.0135 88.3452 61.5396 88.3452C62.0676 88.3452 62.4943 88.7708 62.4943 89.2974V105.383C62.4943 105.909 62.0676 106.335 61.5396 106.335C61.0135 106.335 60.5848 105.909 60.5848 105.383ZM60.5848 137.556V121.47C60.5848 120.944 61.0135 120.518 61.5396 120.518C62.0676 120.518 62.4943 120.944 62.4943 121.47V137.556C62.4943 138.082 62.0676 138.508 61.5396 138.508C61.0135 138.508 60.5848 138.082 60.5848 137.556ZM60.5848 154.19V153.642C60.5848 153.116 61.0135 152.689 61.5396 152.689C62.0676 152.689 62.4943 153.116 62.4943 153.642V154.19C62.4943 159.321 63.0003 164.45 63.9961 169.437C64.0945 169.953 63.7632 170.454 63.2457 170.557C62.7292 170.66 62.2251 170.324 62.1229 169.808C61.1023 164.7 60.5848 159.444 60.5848 154.19ZM56.1491 536.935C56.1491 536.606 56.321 536.285 56.6274 536.108C61.3553 533.397 66.3916 531.224 71.5968 529.648C72.1009 529.495 72.6346 529.779 72.7874 530.282C72.9392 530.785 72.6556 531.317 72.1515 531.47C67.0838 533.004 62.1812 535.12 57.5793 537.76C57.1229 538.021 56.5386 537.864 56.2761 537.408C56.1902 537.259 56.1491 537.096 56.1491 536.935ZM52.0275 657.958C52.0275 657.776 52.079 657.591 52.1888 657.429C52.4819 656.992 53.0748 656.874 53.5131 657.167C57.923 660.111 62.6662 662.554 67.6117 664.43C68.1044 664.617 68.3517 665.166 68.1645 665.659C67.9774 666.15 67.4256 666.397 66.9329 666.21C61.8537 664.284 56.9807 661.774 52.4514 658.749C52.1764 658.567 52.0275 658.265 52.0275 657.958ZM32.6816 558.601C32.6816 558.416 32.736 558.229 32.8486 558.065C35.9162 553.585 39.4984 549.44 43.494 545.75C43.8816 545.393 44.485 545.416 44.844 545.802C45.202 546.188 45.1791 546.79 44.7915 547.148C40.9 550.741 37.4123 554.776 34.4249 559.139C34.128 559.573 33.5341 559.684 33.0978 559.387C32.8267 559.204 32.6816 558.905 32.6816 558.601ZM30.0828 634.759C30.0828 634.433 30.2508 634.115 30.5534 633.936C31.0089 633.671 31.5932 633.822 31.8614 634.275C34.5433 638.828 37.7503 643.089 41.3936 646.941C41.7554 647.323 41.7382 647.925 41.3544 648.286C40.9716 648.647 40.3672 648.629 40.0044 648.247C36.2637 644.292 32.9699 639.916 30.2145 635.241C30.1248 635.089 30.0828 634.923 30.0828 634.759ZM21.0423 588.296C21.0423 588.25 21.0442 588.203 21.0518 588.156C21.8433 582.778 23.2497 577.489 25.2307 572.437C25.4227 571.947 25.9764 571.705 26.4681 571.897C26.9598 572.088 27.2032 572.64 27.0094 573.131C25.0809 578.049 23.7118 583.197 22.9413 588.433C22.8649 588.953 22.3799 589.313 21.8576 589.237C21.3831 589.168 21.0423 588.76 21.0423 588.296ZM20.5 604.332C20.5 603.84 20.881 603.423 21.3812 603.384C21.9063 603.343 22.3656 603.735 22.4066 604.259C22.82 609.543 23.8321 614.772 25.4169 619.803C25.5754 620.305 25.2957 620.84 24.7916 620.997C24.2884 621.155 23.7519 620.876 23.5943 620.373C21.9674 615.206 20.9268 609.834 20.5029 604.407C20.501 604.382 20.5 604.357 20.5 604.332V604.332Z" fill="white"/>
</svg>
