<svg width="80" height="80" viewBox="0 0 80 80" fill="none" xmlns="http://www.w3.org/2000/svg">
<rect width="80" height="80" rx="8" fill="#E8E768"/>
<mask id="mask0_0_507" style="mask-type:alpha" maskUnits="userSpaceOnUse" x="0" y="0" width="80" height="80">
<rect width="80" height="80" rx="8" fill="white"/>
</mask>
<g mask="url(#mask0_0_507)">
<path fill-rule="evenodd" clip-rule="evenodd" d="M53.383 72.7151C58.9877 67.1103 58.9531 57.9562 53.3057 52.3088L34.6323 33.6354C31.3087 30.3119 31.2884 24.9245 34.5868 21.6261C37.8851 18.3278 43.2724 18.3482 46.5959 21.6718L49.0596 24.1354C53.3554 28.4312 60.3186 28.4576 64.582 24.1943L69.6556 19.1206C71.3713 17.405 74.1736 17.4156 75.9024 19.1444C82.0005 25.2425 91.8853 25.2801 97.9373 19.2281L114.855 2.31011L110.2 -2.34531L93.2818 14.5727C89.7775 18.0771 84.0537 18.0552 80.5227 14.5242C76.2269 10.2284 69.2635 10.2019 65.0002 14.4652L59.9266 19.5389C58.2109 21.2546 55.4086 21.2439 53.6798 19.5152L51.2162 17.0515C45.3256 11.1609 35.7773 11.1248 29.9314 16.9707C24.0854 22.8167 24.1215 32.3651 30.012 38.2556L48.6854 56.929C51.7658 60.0094 51.7847 65.0026 48.7276 68.0596C45.6705 71.1167 40.6774 71.0979 37.597 68.0175L29.0997 59.5202C24.8038 55.2243 17.8405 55.1979 13.5771 59.4613L-1.2534 74.2918L3.40201 78.9472L18.2325 64.1167C19.9483 62.4009 22.7506 62.4116 24.4795 64.1404L32.9767 72.6377C38.6242 78.2851 47.7783 78.3198 53.383 72.7151" fill="white"/>
<path fill-rule="evenodd" clip-rule="evenodd" d="M52.9701 72.3027C58.3143 66.9585 58.2668 58.2155 52.8642 52.8129L34.1294 34.078C30.5315 30.4802 30.4998 24.6577 34.0588 21.0988C37.6177 17.5398 43.4402 17.5715 47.0381 21.1693L49.5098 23.6411C53.5564 27.6877 60.105 27.7232 64.1077 23.7205L69.1813 18.6468C71.1575 16.6706 74.3908 16.6882 76.3887 18.6861C82.2433 24.5408 91.7183 24.5924 97.5097 18.8011L114.428 1.88304L110.712 -1.83233L93.7943 15.0857C90.0295 18.8506 83.87 18.8171 80.0638 15.0109C76.0173 10.9644 69.4686 10.9288 65.4659 14.9315L60.3923 20.0051C58.416 21.9814 55.1829 21.9638 53.185 19.9659L50.7132 17.4941C45.0667 11.8476 35.9289 11.798 30.3435 17.3833C24.758 22.9688 24.8077 32.1067 30.4542 37.7532L49.1891 56.4881C52.543 59.842 52.5725 65.2696 49.2548 68.5873C45.9371 71.905 40.5095 71.8755 37.1556 68.5216L28.6303 59.9963C24.5837 55.9498 18.0352 55.914 14.0323 59.917L-0.798252 74.7475L2.91711 78.4628L17.7476 63.6323C19.7239 61.656 22.9572 61.6736 24.9551 63.6715L33.4804 72.1968C38.883 77.5993 47.626 77.6469 52.9701 72.3027" fill="#575757"/>
<path fill-rule="evenodd" clip-rule="evenodd" d="M33.9211 18.2457C33.9705 18.1963 33.9796 18.1171 33.9389 18.0569C33.8927 17.9886 33.7999 17.9705 33.7317 18.0165C33.1026 18.441 32.5091 18.9306 31.9678 19.4719C31.911 19.5314 31.8478 19.5932 31.7889 19.6546C31.7319 19.714 31.734 19.8083 31.7936 19.8656C31.853 19.9225 31.9444 19.9185 32.0044 19.8615C32.0615 19.8019 32.1195 19.7426 32.1782 19.6838C32.1785 19.6836 32.1788 19.6833 32.179 19.6831C32.7069 19.1552 33.2857 18.6778 33.8991 18.2639C33.9071 18.2584 33.9145 18.2523 33.9211 18.2457ZM29.3931 24.119C29.4083 24.1038 29.4208 24.0848 29.4282 24.063C29.7001 23.2808 30.0572 22.5269 30.4895 21.8224C30.5324 21.7522 30.5104 21.6605 30.4402 21.6172C30.37 21.574 30.2783 21.5958 30.2352 21.666C29.7917 22.3886 29.4254 23.1619 29.1465 23.9643C29.1196 24.042 29.1607 24.1271 29.2385 24.1543C29.2944 24.1738 29.3539 24.1582 29.3931 24.119ZM38.5612 16.4043C38.5941 16.3715 38.611 16.3237 38.6027 16.2744C38.5892 16.193 38.5123 16.1381 38.431 16.1515C37.5923 16.2894 36.7679 16.5178 35.9804 16.8302C35.9039 16.8604 35.8666 16.9471 35.8974 17.0236C35.9279 17.1002 36.0146 17.1377 36.0911 17.1074C36.8588 16.8029 37.6625 16.5803 38.4803 16.4457C38.5122 16.4405 38.5401 16.4255 38.5612 16.4043ZM28.7921 29.0805C28.8224 29.0502 28.8393 29.0074 28.8351 28.9615C28.7586 28.1366 28.7703 27.3017 28.8695 26.4798C28.8795 26.398 28.8212 26.3235 28.7393 26.3134C28.6577 26.3034 28.5835 26.3614 28.5736 26.4431C28.4717 27.2858 28.4598 28.1421 28.5381 28.9881C28.5456 29.0702 28.6183 29.1307 28.7004 29.1235C28.7364 29.1201 28.7683 29.1043 28.7921 29.0805ZM43.5549 16.653C43.5728 16.6351 43.5864 16.6125 43.5934 16.5863C43.6146 16.5066 43.5672 16.4249 43.4877 16.4035C42.6677 16.1829 41.8212 16.0497 40.9717 16.0075C40.8896 16.0035 40.8199 16.0669 40.8159 16.149C40.812 16.2312 40.8757 16.3012 40.958 16.3054C41.7861 16.3464 42.6114 16.4764 43.4111 16.6915C43.4643 16.7058 43.5186 16.6894 43.5549 16.653ZM30.2988 33.8503C30.3452 33.8038 30.3567 33.7305 30.3224 33.6707C29.9105 32.952 29.5751 32.1864 29.3255 31.3952C29.3006 31.3169 29.2169 31.273 29.1384 31.2974C29.0598 31.322 29.0163 31.4056 29.0411 31.4843C29.2971 32.2959 29.6413 33.0809 30.0639 33.8184C30.1048 33.89 30.1961 33.9149 30.2675 33.8741C30.2792 33.8673 30.2897 33.8593 30.2988 33.8503ZM48.0003 18.9527C48.0037 18.9494 48.0068 18.946 48.01 18.9422C48.0623 18.8789 48.0533 18.7848 47.9897 18.7322C47.3331 18.1885 46.6177 17.715 45.8638 17.3249C45.7905 17.2871 45.7007 17.3155 45.6629 17.3888C45.6253 17.4619 45.6542 17.5519 45.7274 17.5897C46.4625 17.97 47.1597 18.4316 47.8 18.9617C47.8598 19.0112 47.9466 19.0064 48.0003 18.9527ZM33.549 37.6825C33.6071 37.6244 33.607 37.5299 33.5487 37.4716L32.2026 36.1255C32.0589 35.9818 31.9171 35.8327 31.7815 35.6824C31.7264 35.6211 31.6321 35.6161 31.5709 35.6712C31.51 35.726 31.5052 35.8206 31.5603 35.8818C31.6994 36.0359 31.8447 36.1888 31.992 36.3361L33.3381 37.6822C33.3964 37.7405 33.4908 37.7408 33.549 37.6825ZM51.6124 22.4728C51.6144 22.4708 51.6164 22.4686 51.6183 22.4665C51.6729 22.4051 51.6675 22.3108 51.606 22.2559C51.4984 22.1598 51.3918 22.0591 51.2892 21.9565L49.8196 20.4869C49.7613 20.4286 49.6668 20.4285 49.6087 20.4866C49.5506 20.5447 49.5507 20.6392 49.609 20.6975L51.0786 22.1671C51.1852 22.2736 51.2959 22.3783 51.4077 22.4781C51.4671 22.5311 51.557 22.5282 51.6124 22.4728ZM10.6794 67.2674L12.458 65.4888C12.5162 65.4307 12.516 65.3362 12.4577 65.2779C12.3994 65.2196 12.305 65.2195 12.2468 65.2776L10.4682 67.0563C10.4101 67.1144 10.4102 67.2088 10.4685 67.2671C10.5268 67.3254 10.6213 67.3256 10.6794 67.2674ZM7.12214 70.8247L8.90081 69.046C8.95903 68.9878 8.95878 68.8934 8.90049 68.8351C8.84221 68.7768 8.74784 68.7766 8.68961 68.8348L6.91095 70.6135C6.85294 70.6715 6.85297 70.7661 6.91126 70.8244C6.96955 70.8827 7.06413 70.8827 7.12214 70.8247ZM3.56502 74.3818L5.34358 72.6032C5.4018 72.545 5.40156 72.4506 5.34327 72.3924C5.28498 72.3341 5.19061 72.3338 5.13239 72.392L3.35383 74.1706C3.2956 74.2288 3.29585 74.3232 3.35414 74.3815C3.41243 74.4398 3.5068 74.44 3.56502 74.3818ZM16.0231 61.9396C16.0786 61.8841 16.0815 61.7939 16.0282 61.7347C15.973 61.6733 15.8788 61.6681 15.8176 61.7229C15.7131 61.8168 15.6094 61.915 15.5089 62.0156L14.0255 63.4989C13.9673 63.5571 13.9675 63.6515 14.0258 63.7098C14.0841 63.7681 14.1785 63.7683 14.2367 63.7101L15.7201 62.2268C15.8167 62.1301 15.9167 62.0354 16.0171 61.9452C16.0192 61.9433 16.0212 61.9415 16.0231 61.9396ZM37.1167 41.2502C37.1748 41.1921 37.1748 41.0977 37.1164 41.0393L35.3325 39.2555C35.2742 39.1972 35.1798 39.1971 35.1217 39.2552C35.0634 39.3134 35.0637 39.4078 35.122 39.4661L36.9058 41.2499C36.9642 41.3083 37.0585 41.3084 37.1167 41.2502ZM20.5677 60.0017C20.5974 59.972 20.6143 59.9299 20.6108 59.8849C20.6043 59.8027 20.5326 59.7411 20.4505 59.7472C19.592 59.812 18.7572 60.0149 17.9694 60.3506C17.8938 60.3829 17.8587 60.4706 17.8911 60.5463C17.9237 60.6221 18.0113 60.6574 18.087 60.6252C18.8449 60.3022 19.6479 60.1069 20.4738 60.0447C20.5107 60.042 20.5435 60.0259 20.5677 60.0017ZM56.1695 24.4088C56.1939 24.3843 56.21 24.3514 56.2127 24.3143C56.2185 24.2322 56.1568 24.1606 56.0747 24.1545C55.2483 24.0926 54.4441 23.8977 53.6841 23.5751C53.6082 23.5428 53.5208 23.5781 53.4888 23.654C53.4569 23.7298 53.4925 23.8174 53.5682 23.8496C54.3583 24.1849 55.1944 24.3875 56.0532 24.4518C56.0982 24.4552 56.1399 24.4384 56.1695 24.4088ZM60.9581 23.177C61.007 23.1282 61.0165 23.0501 60.9768 22.9898C60.9315 22.9209 60.839 22.9017 60.7702 22.9468C60.0806 23.3995 59.3247 23.7331 58.5236 23.9387C58.4438 23.959 58.3959 24.0404 58.4167 24.1201C58.4374 24.2 58.5187 24.248 58.5985 24.2275C59.4314 24.014 60.2174 23.6669 60.9343 23.1962C60.9432 23.1905 60.9511 23.1841 60.9581 23.177ZM62.8415 21.5197L64.6201 19.741C64.6782 19.6829 64.6782 19.5885 64.6198 19.5301C64.5616 19.4719 64.4671 19.4717 64.4089 19.5298L62.6303 21.3085C62.5722 21.3666 62.5724 21.4612 62.6306 21.5194C62.689 21.5778 62.7833 21.5778 62.8415 21.5197ZM68.2488 16.264C68.2993 16.2135 68.3073 16.1324 68.2644 16.0723C68.2165 16.005 68.1235 15.9893 68.0564 16.0369C67.7013 16.2894 67.3639 16.5748 67.0536 16.8852L66.1875 17.7513C66.1294 17.8094 66.1296 17.904 66.1878 17.9621C66.2462 18.0205 66.3406 18.0206 66.3987 17.9624L67.2648 17.0964C67.5636 16.7976 67.8883 16.5231 68.2297 16.2801C68.2365 16.2752 68.243 16.2698 68.2488 16.264ZM40.6846 44.8181C40.7427 44.76 40.7424 44.6654 40.6842 44.6072L38.9003 42.8233C38.842 42.765 38.7475 42.7648 38.6894 42.8229C38.6312 42.8812 38.6315 42.9755 38.6897 43.0338L40.4737 44.8178C40.5319 44.8759 40.6263 44.8763 40.6846 44.8181ZM25.3639 61.2315C25.371 61.2243 25.3777 61.2164 25.3835 61.2074C25.4284 61.1387 25.4087 61.0462 25.3397 61.0011C24.6198 60.5308 23.8316 60.1841 22.9972 59.9707C22.9175 59.9503 22.8363 59.9986 22.8161 60.0783C22.7959 60.1581 22.8443 60.2391 22.9243 60.2597C23.7266 60.4649 24.4847 60.7983 25.1771 61.2506C25.2372 61.2899 25.3151 61.2802 25.3639 61.2315ZM72.9864 14.855C73.0121 14.8293 73.0284 14.7942 73.0298 14.755C73.0325 14.6726 72.9682 14.6035 72.8858 14.6003C72.0262 14.5679 71.1733 14.6751 70.3514 14.9189C70.2724 14.9424 70.2277 15.0253 70.2513 15.1043C70.275 15.1833 70.3581 15.2281 70.4371 15.205C71.2278 14.9703 72.0482 14.8671 72.8755 14.8983C72.9186 14.9 72.9582 14.8832 72.9864 14.855ZM44.2523 48.3858C44.3104 48.3277 44.3102 48.2331 44.252 48.175L42.4681 46.391C42.4097 46.3326 42.3153 46.3326 42.2572 46.3907C42.199 46.4489 42.1991 46.5432 42.2575 46.6016L44.0415 48.3855C44.0996 48.4437 44.1941 48.4441 44.2523 48.3858ZM29.0397 64.6741C29.0978 64.616 29.0977 64.5216 29.0393 64.4632L27.2555 62.6794C27.1972 62.6211 27.1027 62.621 27.0446 62.6791C26.9864 62.7373 26.9867 62.8317 27.0449 62.89L28.8288 64.6738C28.8872 64.7322 28.9814 64.7323 29.0397 64.6741ZM77.6132 16.621C77.6164 16.6177 77.6195 16.6142 77.6225 16.6106C77.6751 16.5473 77.6661 16.4532 77.6027 16.4006C76.9389 15.8505 76.1951 15.4162 75.3921 15.1101C75.315 15.0809 75.2293 15.1196 75.1999 15.1963C75.1708 15.2733 75.2096 15.3595 75.2867 15.3888C76.0591 15.6832 76.7743 16.1009 77.4126 16.63C77.4726 16.6796 77.5595 16.6747 77.6132 16.621ZM47.82 51.9535C47.8781 51.8954 47.8781 51.801 47.8197 51.7426L46.0357 49.9587C45.9776 49.9005 45.883 49.9003 45.8249 49.9584C45.7666 50.0166 45.767 50.1111 45.8252 50.1693L47.6091 51.9532C47.6675 52.0116 47.7618 52.0117 47.82 51.9535ZM32.6075 68.242C32.6656 68.1839 32.6654 68.0893 32.6072 68.0311L30.8233 66.2472C30.765 66.1889 30.6705 66.1887 30.6124 66.2469C30.5542 66.3051 30.5544 66.3995 30.6127 66.4577L32.3967 68.2417C32.4548 68.2999 32.5493 68.3002 32.6075 68.242ZM81.666 19.5768C81.678 19.5648 81.6881 19.5504 81.6957 19.5342C81.7304 19.4596 81.6979 19.3709 81.6231 19.3361C80.8723 18.9859 80.1545 18.5565 79.4894 18.0596C79.4233 18.0102 79.3302 18.0241 79.2807 18.0895C79.2315 18.1555 79.2452 18.249 79.3113 18.2983C79.9927 18.8074 80.7285 19.2476 81.4977 19.6063C81.556 19.6335 81.6231 19.6197 81.666 19.5768ZM51.3684 55.5392C51.4233 55.4842 51.427 55.3954 51.3749 55.3358C51.2039 55.1397 51.0238 54.9467 50.8391 54.762L49.6035 53.5265C49.5453 53.4683 49.4508 53.468 49.3926 53.5261C49.3344 53.5844 49.3348 53.6788 49.3929 53.737L50.6285 54.9726C50.8085 55.1525 50.9839 55.3406 51.1505 55.5315C51.2047 55.5937 51.2989 55.6002 51.3609 55.5462C51.3635 55.544 51.3661 55.5415 51.3684 55.5392ZM86.5375 20.725C86.5637 20.6989 86.5801 20.6633 86.581 20.6235C86.583 20.5412 86.518 20.4726 86.4356 20.4702C85.6068 20.4475 84.7778 20.3399 83.9718 20.1502C83.8916 20.1313 83.8113 20.1807 83.7928 20.2609C83.7741 20.3413 83.8241 20.4216 83.9042 20.4404C84.73 20.6346 85.5791 20.7451 86.4283 20.7684C86.4708 20.7696 86.5096 20.7529 86.5375 20.725ZM36.2449 71.7328C36.2495 71.7282 36.254 71.723 36.2581 71.7174C36.3078 71.6519 36.2949 71.5584 36.2294 71.5084C35.8297 71.205 35.4457 70.8699 35.0886 70.5125L34.391 69.815C34.3327 69.7566 34.2383 69.7565 34.1802 69.8146C34.1219 69.8729 34.1221 69.9671 34.1805 70.0255L34.878 70.7231C35.2448 71.09 35.639 71.4339 36.0493 71.7457C36.1095 71.7913 36.193 71.7847 36.2449 71.7328ZM91.4598 19.8474C91.5007 19.8064 91.5155 19.7435 91.4924 19.6863C91.4615 19.6097 91.3746 19.5727 91.2982 19.6032C90.5313 19.9109 89.7286 20.1408 88.9122 20.2861C88.8312 20.3005 88.7773 20.378 88.792 20.459C88.8068 20.5401 88.8843 20.5941 88.9653 20.5796C89.8016 20.4307 90.6242 20.1954 91.4099 19.8801C91.4292 19.8724 91.446 19.8612 91.4598 19.8474ZM108.067 4.62757L109.845 2.849C109.903 2.79089 109.903 2.69631 109.845 2.63812C109.787 2.57973 109.692 2.5797 109.634 2.63781L107.855 4.41637C107.797 4.4746 107.797 4.56886 107.856 4.62725C107.914 4.68544 108.008 4.68579 108.067 4.62757ZM104.509 8.1849L106.288 6.40623C106.346 6.34812 106.346 6.25354 106.288 6.19535C106.229 6.13696 106.135 6.13692 106.077 6.19504L104.298 7.97371C104.24 8.03182 104.24 8.12619 104.298 8.18459C104.357 8.24277 104.451 8.24302 104.509 8.1849ZM100.952 11.742L102.731 9.96346C102.789 9.90524 102.789 9.81076 102.73 9.75258C102.672 9.69419 102.578 9.69405 102.52 9.75227L100.741 11.5308C100.683 11.5889 100.683 11.6833 100.741 11.7417C100.8 11.7999 100.894 11.8001 100.952 11.742ZM97.395 15.2993L99.1735 13.5207C99.2317 13.4626 99.2314 13.368 99.1732 13.3098C99.1148 13.2514 99.0205 13.2514 98.9623 13.3095L97.1838 15.0881C97.1256 15.1463 97.1257 15.2405 97.1841 15.2989C97.2423 15.3571 97.3368 15.3575 97.395 15.2993ZM95.5558 17.1385L95.6164 17.0778C95.6745 17.0197 95.6743 16.9251 95.6161 16.8669C95.5577 16.8085 95.4633 16.8085 95.4052 16.8666L95.3446 16.9273C94.7773 17.4945 94.1542 18.0057 93.4927 18.447C93.4247 18.4932 93.406 18.5852 93.4519 18.6538C93.4976 18.7223 93.5904 18.741 93.6588 18.6952C94.3365 18.2432 94.9748 17.7194 95.5558 17.1385ZM53.7274 59.948C53.7638 59.9116 53.7803 59.8571 53.7659 59.8037C53.5427 58.9811 53.226 58.1837 52.8246 57.4338C52.7857 57.3612 52.6953 57.3335 52.6228 57.3722C52.5504 57.411 52.5229 57.5012 52.5617 57.5739C52.9526 58.304 53.2609 59.0802 53.478 59.881C53.4995 59.9605 53.5815 60.0077 53.661 59.9863C53.687 59.9793 53.7096 59.9658 53.7274 59.948ZM40.8021 73.7851C40.8222 73.765 40.8369 73.7388 40.8428 73.7087C40.8587 73.6279 40.806 73.5494 40.7253 73.5333C39.912 73.3711 39.1172 73.1166 38.3628 72.777C38.2877 72.7432 38.1996 72.7766 38.1659 72.8517C38.1322 72.9267 38.166 73.015 38.2411 73.0489C39.0159 73.3977 39.8324 73.6591 40.6677 73.8257C40.7183 73.8359 40.7682 73.819 40.8021 73.7851ZM53.9274 64.9391C53.9478 64.9187 53.9624 64.892 53.9682 64.8614C54.1243 64.0267 54.1863 63.1723 54.1524 62.3223C54.1491 62.24 54.0797 62.1759 53.9973 62.1788C53.9151 62.1818 53.851 62.251 53.8544 62.3334C53.8874 63.1611 53.8271 63.993 53.6751 64.8058C53.6599 64.8866 53.7133 64.9646 53.7944 64.98C53.8447 64.9897 53.8937 64.9728 53.9274 64.9391ZM45.7942 73.6472C45.8303 73.611 45.8469 73.5573 45.8331 73.5041C45.8121 73.4244 45.7308 73.3765 45.651 73.397C44.851 73.6037 44.0252 73.7201 43.1963 73.7431C43.1141 73.7453 43.0493 73.8138 43.0519 73.8962C43.0543 73.9784 43.1232 74.0432 43.2055 74.0412C44.0566 74.0175 44.9047 73.8981 45.7264 73.6859C45.7532 73.6789 45.7761 73.6653 45.7942 73.6472ZM51.9314 69.5097C51.9365 69.5047 51.9414 69.4993 51.9459 69.4932C52.453 68.811 52.8822 68.0707 53.2217 67.293C53.2546 67.2176 53.2201 67.1296 53.1445 67.0964C53.069 67.0632 52.981 67.0973 52.9482 67.173C52.6177 67.9301 52.2 68.6507 51.7063 69.3148C51.6572 69.3808 51.6711 69.4742 51.7372 69.5236C51.7973 69.5685 51.8801 69.5611 51.9314 69.5097ZM50.2183 71.3428C50.2728 71.2884 50.2767 71.2001 50.2257 71.1405C50.1722 71.0778 50.078 71.0704 50.0156 71.1238C49.3856 71.6623 48.6955 72.1286 47.964 72.5095C47.891 72.5475 47.8627 72.6376 47.9011 72.7107C47.9393 72.7838 48.0295 72.8123 48.1025 72.7742C48.8537 72.3828 49.5628 71.9039 50.2097 71.3508C50.2128 71.3482 50.2156 71.3455 50.2183 71.3428V71.3428Z" fill="white"/>
</g>
</svg>
