<svg width="148" height="78" viewBox="0 0 148 78" fill="none" xmlns="http://www.w3.org/2000/svg">
<path fill-rule="evenodd" clip-rule="evenodd" d="M20.471 29.7955C18.6042 30.5871 16.4384 30.983 13.9735 30.983C11.3275 30.983 8.97134 30.5331 6.90522 29.6335C4.83909 28.7339 3.20794 27.5014 2.01176 25.9361C0.815577 24.3707 0.144991 22.6165 0 20.6733H9.18883C9.29757 21.7169 9.78692 22.5625 10.6569 23.2102C11.5268 23.858 12.5961 24.1818 13.8648 24.1818C15.0247 24.1818 15.9219 23.9569 16.5562 23.5071C17.1905 23.0573 17.5077 22.4725 17.5077 21.7528C17.5077 20.8892 17.0546 20.2505 16.1484 19.8366C15.2422 19.4228 13.7742 18.964 11.7443 18.4602C9.56943 17.9564 7.75704 17.4257 6.30713 16.8679C4.85721 16.3101 3.60666 15.4285 2.55547 14.223C1.50429 13.0175 0.978692 11.3892 0.978692 9.33807C0.978692 7.6108 1.45898 6.03646 2.41954 4.61506C3.38011 3.19366 4.79378 2.06913 6.66054 1.24148C8.52731 0.413826 10.7475 0 13.3211 0C17.1271 0 20.1266 0.935606 22.3196 2.80682C24.5126 4.67803 25.7722 7.16098 26.0985 10.2557H17.5077C17.3627 9.21212 16.9006 8.38447 16.1212 7.77273C15.3419 7.16098 14.3179 6.85511 13.0492 6.85511C11.9618 6.85511 11.1281 7.06203 10.5481 7.47585C9.96816 7.88968 9.67818 8.45644 9.67818 9.17614C9.67818 10.0398 10.1403 10.6875 11.0647 11.1193C11.989 11.5511 13.4298 11.983 15.3872 12.4148C17.6346 12.9905 19.4651 13.5573 20.8788 14.1151C22.2924 14.6728 23.5339 15.5724 24.6032 16.8139C25.6725 18.0554 26.2253 19.7197 26.2616 21.8068C26.2616 23.5701 25.7632 25.1444 24.7663 26.5298C23.7695 27.9152 22.3377 29.0038 20.471 29.7955ZM52.2513 11.0114L47.3035 30.5511H37.0816L28.817 0.431818H38.1146L42.41 21.9688L47.5209 0.431818H57.3622L62.5276 21.8608L66.7686 0.431818H75.5224L67.3123 30.5511H57.036L52.2513 11.0114ZM90.529 30.983C92.6676 30.983 94.5435 30.5511 96.1565 29.6875C97.7695 28.8239 99.0292 27.6903 99.9353 26.2869V30.5511H109.233V0.431818H99.9353V4.69602C99.0654 3.29261 97.8239 2.15909 96.2109 1.29545C94.5978 0.431818 92.722 0 90.5834 0C88.0823 0 85.8168 0.629735 83.7869 1.8892C81.757 3.14867 80.1531 4.94792 78.975 7.28693C77.797 9.62595 77.2079 12.3428 77.2079 15.4375C77.2079 18.5322 77.797 21.258 78.975 23.6151C80.1531 25.9721 81.757 27.7893 83.7869 29.0668C85.8168 30.3442 88.0642 30.983 90.529 30.983ZM88.5988 20.9162C89.8856 22.2656 91.4533 22.9403 93.302 22.9403C95.1506 22.9403 96.7183 22.2746 98.0051 20.9432C99.2919 19.6117 99.9353 17.7945 99.9353 15.4915C99.9353 13.1884 99.2919 11.3712 98.0051 10.0398C96.7183 8.70833 95.1506 8.04261 93.302 8.04261C91.4533 8.04261 89.8856 8.69934 88.5988 10.0128C87.312 11.3262 86.6686 13.1345 86.6686 15.4375C86.6686 17.7405 87.312 19.5668 88.5988 20.9162ZM125.273 55.5455V26.3409C126.179 27.7083 127.438 28.8239 129.051 29.6875C130.664 30.5511 132.522 30.983 134.625 30.983C137.126 30.983 139.391 30.3442 141.421 29.0668C143.451 27.7893 145.055 25.9721 146.233 23.6151C147.411 21.258 148 18.5322 148 15.4375C148 12.3428 147.411 9.62595 146.233 7.28693C145.055 4.94792 143.451 3.14867 141.421 1.8892C139.391 0.629735 137.126 0 134.625 0C132.486 0 130.619 0.431818 129.024 1.29545C127.429 2.15909 126.179 3.29261 125.273 4.69602V0.431818H115.975V55.5455H125.273ZM127.148 20.9432C128.435 22.2746 130.003 22.9403 131.852 22.9403C133.7 22.9403 135.277 22.2656 136.582 20.9162C137.887 19.5668 138.539 17.7405 138.539 15.4375C138.539 13.1345 137.896 11.3262 136.609 10.0128C135.322 8.69934 133.736 8.04261 131.852 8.04261C130.003 8.04261 128.435 8.70833 127.148 10.0398C125.862 11.3712 125.218 13.1884 125.218 15.4915C125.218 17.7945 125.862 19.6117 127.148 20.9432Z" fill="white"/>
<path fill-rule="evenodd" clip-rule="evenodd" d="M37.7059 44.372C39.282 44.372 40.5804 43.8898 41.6013 42.9254C42.6221 41.9609 43.1325 40.769 43.1325 39.3497C43.1325 37.8939 42.6221 36.6838 41.6013 35.7194C40.5804 34.7549 39.282 34.2727 37.7059 34.2727C36.0941 34.2727 34.7777 34.7549 33.7569 35.7194C32.736 36.6838 32.2256 37.8939 32.2256 39.3497C32.2256 40.769 32.736 41.9609 33.7569 42.9254C34.7777 43.8898 36.0941 44.372 37.7059 44.372ZM42.2729 78V47.5383H33.0852V78H42.2729ZM116.968 70.0843V78H60.9705C57.6393 78 55.0424 77.172 53.1798 75.5161C51.3172 73.8602 50.3859 71.1579 50.3859 67.4094V55.5454H46.7861V47.7935H50.3859V40.1139H59.5736V47.7935H116.968V55.5454L59.5736 55.4645V67.5185C59.5736 68.4284 59.7885 69.0835 60.2183 69.4838C60.6482 69.8841 61.3645 70.0843 62.3675 70.0843H116.968Z" fill="white"/>
</svg>
