<svg width="200" height="200" viewBox="0 0 200 200" fill="none" xmlns="http://www.w3.org/2000/svg">
<path d="M172.152 43.2612C173.128 40.96 172.197 38.363 170.072 37.4606C169.084 37.0412 168.014 37.07 167.051 37.4431L169.682 31.2435L163.98 28.8224C164.106 29.5287 164.036 30.2787 163.735 30.9882C162.909 32.9353 160.66 33.8434 158.712 33.0161C156.764 32.1889 155.854 29.9399 156.68 27.9925C156.981 27.2831 157.472 26.7118 158.068 26.3119L151.082 23.346L148.12 30.3275C148.826 30.2018 149.577 30.2721 150.286 30.5735C152.235 31.4007 153.144 33.6497 152.318 35.5971C151.492 37.5442 149.242 38.4523 147.294 37.625C146.584 37.3236 146.013 36.8326 145.612 36.237L143.194 41.936L150.189 44.906C148.771 45.1167 147.533 45.9803 146.965 47.3197C146.063 49.4438 147.199 51.9583 149.501 52.9359C151.804 53.9135 154.401 52.9841 155.302 50.8599C155.871 49.5205 155.632 48.0299 154.798 46.8634L161.793 49.8334L164.424 43.6337C164.824 44.5855 165.547 45.3755 166.535 45.7949C168.66 46.6973 171.175 45.5633 172.151 43.2621L172.152 43.2612Z" fill="#7ED5DD"/>
<path d="M174.071 125.733C171.892 124.81 169.434 125.69 168.579 127.699C168.182 128.632 168.21 129.643 168.563 130.553L162.694 128.067L160.402 133.455C161.071 133.336 161.781 133.402 162.452 133.686C164.295 134.467 165.155 136.592 164.372 138.434C163.589 140.275 161.46 141.134 159.616 140.353C158.945 140.069 158.404 139.605 158.025 139.042L155.218 145.643L161.827 148.443C161.708 147.775 161.774 147.066 162.06 146.395C162.843 144.554 164.972 143.695 166.815 144.476C168.659 145.256 169.518 147.382 168.735 149.223C168.45 149.894 167.985 150.434 167.421 150.812L172.816 153.098L175.628 146.488C175.827 147.827 176.645 148.997 177.913 149.534C179.923 150.386 182.304 149.313 183.229 147.137C184.155 144.961 183.275 142.507 181.264 141.655C179.996 141.118 178.585 141.344 177.481 142.131L180.292 135.521L174.423 133.035C175.324 132.657 176.072 131.974 176.469 131.041C177.323 129.033 176.25 126.656 174.071 125.734L174.071 125.733Z" fill="#FF68A3"/>
<path d="M27.0133 156.677C27.6612 158.791 29.7703 160.022 31.724 159.426C32.6322 159.149 33.3409 158.522 33.7808 157.722L35.5263 163.418L40.7683 161.819L46.2038 160.161L52.6252 158.203L50.6595 151.789C50.2523 152.275 49.7039 152.654 49.0514 152.853C47.2604 153.399 45.364 152.392 44.8157 150.603C44.2675 148.814 45.2748 146.92 47.0659 146.374C47.7184 146.175 48.3853 146.183 48.9956 146.359L47.391 141.123L40.9606 143.085C41.8015 142.136 42.1489 140.848 41.7717 139.617C41.1736 137.666 38.9729 136.607 36.8563 137.253C34.7397 137.898 33.5086 140.004 34.1067 141.955C34.4838 143.186 35.4941 144.06 36.7228 144.377L30.2923 146.338L32.0379 152.034C31.2251 151.617 30.2858 151.492 29.3776 151.769C27.4239 152.365 26.3653 154.562 27.0132 156.676L27.0133 156.677Z" fill="#E8E768"/>
<path d="M19.142 28.3196C17.3722 30.0862 17.2618 32.8404 18.8954 34.4711C19.6547 35.2291 20.6584 35.6025 21.6916 35.6168L16.9238 40.3763L21.3067 44.7516C21.4547 44.0501 21.801 43.3814 22.3466 42.8367C23.844 41.3419 26.2719 41.3417 27.7695 42.8367C29.267 44.3316 29.2671 46.7553 27.7695 48.2503C27.224 48.7949 26.5541 49.1406 25.8514 49.2884L31.2205 54.6481L36.5895 49.2884C35.8868 49.1406 35.217 48.7949 34.6714 48.2503C33.174 46.7554 33.1738 44.3317 34.6714 42.8367C36.1688 41.3419 38.5967 41.3417 40.0943 42.8367C40.6399 43.3814 40.9862 44.0501 41.1342 44.7516L45.5171 40.3763L40.1405 35.0091C41.5353 35.3441 43.0081 35.007 44.0382 33.9788C45.6718 32.348 45.5614 29.5939 43.7916 27.8272C42.0219 26.0605 39.2629 25.9503 37.6294 27.5811C36.5993 28.6093 36.2616 30.0796 36.5972 31.472L31.2207 26.1047L26.4528 30.8643C26.4386 29.8329 26.0645 28.8308 25.3052 28.0729C23.6716 26.4421 20.9127 26.5523 19.1429 28.319L19.142 28.3196Z" fill="#E7B277"/>
<path d="M86.5231 51.7113C87.3087 52.921 88.851 53.3136 89.968 52.5882C90.4872 52.251 90.8185 51.7298 90.9505 51.149L93.0669 54.4081L96.0638 52.4618C95.6854 52.2942 95.3492 52.0187 95.107 51.6458C94.4423 50.6222 94.7335 49.2533 95.7575 48.5882C96.7814 47.9233 98.1504 48.2139 98.8152 49.2376C99.0573 49.6105 99.1722 50.0297 99.1714 50.4436L102.843 48.0593L100.459 44.3893C100.292 44.7677 100.016 45.1039 99.643 45.3462C98.6191 46.0112 97.2501 45.7206 96.5854 44.6969C95.9207 43.6733 96.2118 42.3044 97.2359 41.6393C97.6089 41.3971 98.0281 41.282 98.4421 41.2827L96.4966 38.2868L92.8202 40.6744C93.1767 39.9282 93.163 39.0573 92.7058 38.3532C91.9807 37.2366 90.4118 36.9685 89.2017 37.7544C87.9916 38.5403 87.5984 40.0826 88.3235 41.1992C88.7807 41.9033 89.5707 42.2701 90.3974 42.2479L86.7209 44.6354L88.8373 47.8945C88.2531 47.7788 87.6422 47.8696 87.123 48.2068C86.006 48.9322 85.7373 50.5009 86.5229 51.7107L86.5231 51.7113Z" fill="#E8E768"/>
<path d="M106.499 168.591C107.284 169.801 108.827 170.193 109.944 169.468C110.463 169.131 110.794 168.61 110.926 168.029L113.042 171.288L116.039 169.342C115.661 169.174 115.325 168.899 115.083 168.526C114.418 167.502 114.709 166.133 115.733 165.468C116.757 164.803 118.126 165.094 118.791 166.117C119.033 166.49 119.148 166.91 119.147 167.323L122.818 164.939L120.435 161.269C120.267 161.648 119.992 161.984 119.619 162.226C118.595 162.891 117.226 162.6 116.561 161.577C115.896 160.553 116.187 159.184 117.211 158.519C117.584 158.277 118.004 158.162 118.418 158.163L116.472 155.167L112.796 157.554C113.152 156.808 113.139 155.937 112.681 155.233C111.956 154.116 110.387 153.848 109.177 154.634C107.967 155.42 107.574 156.962 108.299 158.079C108.756 158.783 109.546 159.15 110.373 159.128L106.697 161.515L108.813 164.774C108.229 164.659 107.618 164.749 107.099 165.087C105.982 165.812 105.713 167.381 106.498 168.591L106.499 168.591Z" fill="#7ED5DD"/>
<path d="M174.518 82.6241L176.67 85.4753C176.811 85.0864 177.063 84.7322 177.418 84.4648C178.394 83.7309 179.781 83.9256 180.517 84.8998C181.252 85.8739 181.057 87.2586 180.081 87.9926C179.726 88.26 179.316 88.4037 178.902 88.4318L181.539 91.9246L185.037 89.2932C184.647 89.1524 184.292 88.9012 184.025 88.5463C183.289 87.5721 183.484 86.1874 184.46 85.4535C185.435 84.7196 186.822 84.9143 187.558 85.8885C187.826 86.2434 187.97 86.6532 187.998 87.0659L190.854 84.9179L188.213 81.4202C188.983 81.7235 189.852 81.6491 190.523 81.1443C191.587 80.3437 191.745 78.7613 190.876 77.61C190.007 76.4588 188.44 76.1745 187.376 76.9751C186.704 77.4799 186.393 78.2928 186.473 79.1152L183.833 75.6175L180.726 77.9542L174.518 82.6241Z" fill="#E7B277"/>
<path d="M21.571 88.2569C20.1648 87.9319 18.7824 88.72 18.4833 90.017C18.3442 90.6199 18.4682 91.2248 18.7771 91.7342L14.9888 90.8586L14.1862 94.3387C14.575 94.1966 15.0083 94.1614 15.4418 94.2616C16.6316 94.5366 17.3739 95.7234 17.0997 96.9125C16.8255 98.1015 15.6387 98.8425 14.4487 98.5675C14.0152 98.4673 13.6412 98.2456 13.354 97.9473L12.3708 102.21L16.6369 103.196C16.4944 102.808 16.4589 102.375 16.5588 101.941C16.833 100.752 18.0198 100.011 19.2097 100.286C20.3995 100.561 21.1419 101.748 20.8677 102.937C20.7678 103.37 20.5462 103.744 20.2479 104.031L23.7304 104.836L24.7149 100.567C24.9773 101.351 25.5926 101.968 26.4111 102.157C27.7091 102.457 29.024 101.561 29.3481 100.156C29.6721 98.7505 28.8826 97.3682 27.5847 97.0682C26.7662 96.8791 25.943 97.1635 25.3638 97.7532L26.3483 93.4841L22.56 92.6086C23.0607 92.2863 23.437 91.7971 23.576 91.1942C23.8752 89.8971 22.9778 88.5822 21.5716 88.2572L21.571 88.2569Z" fill="#FF68A3"/>
<path fill-rule="evenodd" clip-rule="evenodd" d="M57.8111 96.059C56.3697 96.6718 54.6974 96.9782 52.7943 96.9782C50.7511 96.9782 48.9319 96.63 47.3366 95.9336C45.7413 95.2372 44.4818 94.2831 43.5582 93.0714C42.6346 91.8597 42.1168 90.5017 42.0049 88.9974H49.0998C49.1838 89.8053 49.5616 90.4599 50.2334 90.9613C50.9051 91.4627 51.7307 91.7134 52.7103 91.7134C53.6059 91.7134 54.2986 91.5393 54.7884 91.1911C55.2782 90.8429 55.5231 90.3903 55.5231 89.8331C55.5231 89.1646 55.1732 88.6701 54.4735 88.3498C53.7738 88.0294 52.6403 87.6743 51.073 87.2843C49.3937 86.8943 47.9943 86.4834 46.8748 86.0517C45.7553 85.6199 44.7897 84.9374 43.978 84.0042C43.1664 83.0711 42.7606 81.8106 42.7606 80.2228C42.7606 78.8857 43.1314 77.667 43.8731 76.5667C44.6148 75.4664 45.7063 74.5959 47.1477 73.9552C48.5891 73.3145 50.3033 72.9941 52.2905 72.9941C55.2292 72.9941 57.5452 73.7184 59.2385 75.1669C60.9318 76.6154 61.9044 78.5375 62.1562 80.9331H55.5231C55.4111 80.1253 55.0543 79.4846 54.4525 79.011C53.8508 78.5375 53.0601 78.3007 52.0806 78.3007C51.2409 78.3007 50.5972 78.4609 50.1494 78.7812C49.7016 79.1016 49.4777 79.5403 49.4777 80.0974C49.4777 80.766 49.8345 81.2674 50.5482 81.6017C51.2619 81.9359 52.3744 82.2702 53.8858 82.6045C55.621 83.0502 57.0344 83.4889 58.126 83.9207C59.2175 84.3525 60.1761 85.0489 61.0017 86.0099C61.8274 86.9709 62.2542 88.2593 62.2822 89.8749C62.2822 91.2399 61.8974 92.4586 61.1277 93.531C60.358 94.6035 59.2525 95.4461 57.8111 96.059ZM82.3496 81.5181L78.5292 96.6439H70.6366L64.2553 73.3284H71.4343L74.7508 90.0003L78.6972 73.3284H86.2959L90.2842 89.9167L93.5588 73.3284H100.318L93.9786 96.6439H86.044L82.3496 81.5181ZM111.905 96.9782C113.556 96.9782 115.005 96.6439 116.25 95.9754C117.496 95.3068 118.468 94.4294 119.168 93.343V96.6439H126.347V73.3284H119.168V76.6294C118.496 75.543 117.537 74.6655 116.292 73.997C115.047 73.3284 113.598 72.9941 111.947 72.9941C110.016 72.9941 108.266 73.4816 106.699 74.4566C105.132 75.4315 103.893 76.8243 102.984 78.635C102.074 80.4456 101.619 82.5488 101.619 84.9444C101.619 87.34 102.074 89.4501 102.984 91.2747C103.893 93.0993 105.132 94.506 106.699 95.4949C108.266 96.4838 110.002 96.9782 111.905 96.9782ZM110.415 89.1855C111.408 90.2301 112.619 90.7524 114.046 90.7524C115.473 90.7524 116.684 90.237 117.677 89.2064C118.671 88.1757 119.168 86.769 119.168 84.9862C119.168 83.2034 118.671 81.7967 117.677 80.766C116.684 79.7353 115.473 79.22 114.046 79.22C112.619 79.22 111.408 79.7283 110.415 80.7451C109.421 81.7618 108.924 83.1616 108.924 84.9444C108.924 86.7272 109.421 88.1409 110.415 89.1855ZM138.731 115.992V93.3848C139.431 94.4433 140.404 95.3068 141.649 95.9754C142.895 96.6439 144.329 96.9782 145.952 96.9782C147.883 96.9782 149.633 96.4838 151.2 95.4949C152.767 94.506 154.006 93.0993 154.915 91.2747C155.825 89.4501 156.28 87.34 156.28 84.9444C156.28 82.5488 155.825 80.4456 154.915 78.635C154.006 76.8243 152.767 75.4315 151.2 74.4566C149.633 73.4816 147.883 72.9941 145.952 72.9941C144.301 72.9941 142.86 73.3284 141.628 73.997C140.397 74.6655 139.431 75.543 138.731 76.6294V73.3284H131.552V115.992H138.731ZM140.18 89.2064C141.173 90.237 142.384 90.7524 143.811 90.7524C145.239 90.7524 146.456 90.2301 147.464 89.1855C148.471 88.1409 148.975 86.7272 148.975 84.9444C148.975 83.1616 148.478 81.7618 147.485 80.7451C146.491 79.7283 145.267 79.22 143.811 79.22C142.384 79.22 141.173 79.7353 140.18 80.766C139.186 81.7967 138.689 83.2034 138.689 84.9862C138.689 86.769 139.186 88.1757 140.18 89.2064Z" fill="white"/>
<path fill-rule="evenodd" clip-rule="evenodd" d="M71.1192 107.343C72.3361 107.343 73.3387 106.97 74.1269 106.223C74.9152 105.476 75.3093 104.554 75.3093 103.455C75.3093 102.328 74.9152 101.391 74.1269 100.645C73.3387 99.8982 72.3361 99.5249 71.1192 99.5249C69.8747 99.5249 68.8583 99.8982 68.07 100.645C67.2818 101.391 66.8877 102.328 66.8877 103.455C66.8877 104.554 67.2818 105.476 68.07 106.223C68.8583 106.97 69.8747 107.343 71.1192 107.343ZM74.6455 133.374V109.794H67.5515V133.374H74.6455ZM132.319 127.247V133.374H89.0825C86.5104 133.374 84.5052 132.733 83.0671 131.452C81.6289 130.17 80.9098 128.078 80.9098 125.176V115.992H78.1303V109.991H80.9098V104.047H88.0039V109.991H132.319V115.992L88.0039 115.93V125.261C88.0039 125.965 88.1698 126.472 88.5017 126.782C88.8336 127.092 89.3867 127.247 90.1611 127.247H132.319Z" fill="white"/>
</svg>
